<svg width="180" height="180" viewBox="0 0 180 180" fill="none" xmlns="http://www.w3.org/2000/svg">
<path d="M134.29 121.28H22.29V40.5H131.81L134.29 121.28Z" fill="#3C4043" stroke="#3C4043" stroke-miterlimit="10" stroke-linecap="round" stroke-linejoin="round"/>
<path d="M131.81 40.5H17.5303V119.11H131.81V40.5Z" fill="white" stroke="#3C4043" stroke-miterlimit="10" stroke-linecap="round" stroke-linejoin="round"/>
<path d="M125.71 46.4805H23.6299V113.12H125.71V46.4805Z" fill="#DADCE0" stroke="#DADCE0" stroke-miterlimit="10" stroke-linecap="round" stroke-linejoin="round"/>
<path d="M118.45 74.0996H82.9297V124.32H118.45V74.0996Z" fill="white" stroke="#3C4043" stroke-miterlimit="10" stroke-linecap="round" stroke-linejoin="round"/>
<path d="M35 79.5897H55.62V54.1797L35 54.4297V79.5897Z" fill="#3C4043" stroke="#3C4043" stroke-miterlimit="10" stroke-linecap="round" stroke-linejoin="round"/>
<path d="M31.54 76.77H54.31C55.14 74.17 55.57 71.45 55.57 68.72V54H32.8V68.72C32.8 71.45 32.37 74.16 31.54 76.77Z" fill="white" stroke="#3C4043" stroke-miterlimit="10" stroke-linecap="round" stroke-linejoin="round"/>
<path d="M37.2197 59.5596H47.7097" stroke="#3C4043" stroke-miterlimit="10" stroke-linecap="round" stroke-linejoin="round"/>
<path d="M159.59 94.2305H158.27V97.8605H159.59V94.2305Z" stroke="#3C4043" stroke-miterlimit="10" stroke-linecap="round" stroke-linejoin="round"/>
<path d="M160.55 97.8604H157.31V115.38H160.55V97.8604Z" fill="white" stroke="#3C4043" stroke-miterlimit="10" stroke-linecap="round" stroke-linejoin="round"/>
<path d="M149.627 101.516L146.55 102.528L151.433 117.375L154.51 116.363L149.627 101.516Z" stroke="#3C4043" stroke-miterlimit="10" stroke-linecap="round" stroke-linejoin="round"/>
<path d="M169.689 100.861L166.588 99.9219L161.214 117.655L164.315 118.595L169.689 100.861Z" stroke="#3C4043" stroke-miterlimit="10" stroke-linecap="round" stroke-linejoin="round"/>
<path d="M169.688 100.861L166.587 99.9219L164.316 107.415L167.417 108.355L169.688 100.861Z" fill="#3C4043" stroke="#3C4043" stroke-miterlimit="10" stroke-linecap="round" stroke-linejoin="round"/>
<path d="M168.86 111.88L171.17 104.27L168.87 103.57" stroke="#3C4043" stroke-miterlimit="10" stroke-linecap="round" stroke-linejoin="round"/>
<path d="M148.16 140.491H164.46L168.23 115.381H144.39L148.16 140.491Z" fill="white" stroke="#3C4043" stroke-miterlimit="10" stroke-linecap="round" stroke-linejoin="round"/>
<path d="M77 100C77 107.776 80.2867 115.876 78.5231 123.5L110 124V100.85V81H78.5231L77 100Z" fill="#3C4043"/>
<path d="M78.5231 123.5L78.0359 123.387L77.8965 123.99L78.5151 124L78.5231 123.5ZM77 100L76.5016 99.96L76.5 99.98V100H77ZM78.5231 81V80.5H78.0616L78.0247 80.96L78.5231 81ZM110 81H110.5C110.5 80.7239 110.276 80.5 110 80.5V81ZM110 124L109.992 124.5L110.5 124.508V124H110ZM79.0102 123.613C79.9149 119.702 79.5197 115.69 78.9172 111.732C78.3103 107.744 77.5 103.838 77.5 100H76.5C76.5 103.938 77.3331 107.97 77.9286 111.882C78.5286 115.824 78.8949 119.674 78.0359 123.387L79.0102 123.613ZM77.4984 100.04L79.0215 81.04L78.0247 80.96L76.5016 99.96L77.4984 100.04ZM78.5231 81.5H110V80.5H78.5231V81.5ZM109.5 81V100.85H110.5V81H109.5ZM109.5 100.85V124H110.5V100.85H109.5ZM110.008 123.5L78.531 123L78.5151 124L109.992 124.5L110.008 123.5Z" fill="#3C4043"/>
<path d="M106.395 129H69C70.7369 120.489 71.6054 111.829 71.6054 103.148V81H109V103.158C109 111.839 108.132 120.489 106.395 129Z" fill="#839681" stroke="#839681" stroke-miterlimit="10" stroke-linecap="round" stroke-linejoin="round"/>
<path d="M69 129H106.395C108.132 120.489 109 111.839 109 103.158V81" stroke="#3C4043" stroke-miterlimit="10" stroke-linecap="round" stroke-linejoin="round"/>
<path d="M81.6299 92.4404L98.8999 116.45" stroke="white" stroke-miterlimit="10"/>
<path d="M98.8999 92.4404L81.6299 116.45" stroke="white" stroke-miterlimit="10"/>
<path d="M121.62 55.6707L119.89 53.9307" stroke="#3C4043" stroke-miterlimit="10" stroke-linecap="round"/>
<path d="M118.18 54.6403C119.511 54.6403 120.59 53.5613 120.59 52.2303C120.59 50.8993 119.511 49.8203 118.18 49.8203C116.849 49.8203 115.77 50.8993 115.77 52.2303C115.77 53.5613 116.849 54.6403 118.18 54.6403Z" fill="white" stroke="#3C4043" stroke-miterlimit="10"/>
<path d="M115.881 61.9002L114.141 60.1602" stroke="#3C4043" stroke-miterlimit="10" stroke-linecap="round"/>
<path d="M112.44 60.8698C113.771 60.8698 114.85 59.7908 114.85 58.4598C114.85 57.1288 113.771 56.0498 112.44 56.0498C111.109 56.0498 110.03 57.1288 110.03 58.4598C110.03 59.7908 111.109 60.8698 112.44 60.8698Z" fill="white" stroke="#3C4043" stroke-miterlimit="10"/>
<path d="M68.9207 60.0701L67.1807 58.3301" stroke="#3C4043" stroke-miterlimit="10" stroke-linecap="round"/>
<path d="M65.4803 59.0397C66.8113 59.0397 67.8903 57.9607 67.8903 56.6297C67.8903 55.2987 66.8113 54.2197 65.4803 54.2197C64.1493 54.2197 63.0703 55.2987 63.0703 56.6297C63.0703 57.9607 64.1493 59.0397 65.4803 59.0397Z" fill="white" stroke="#3C4043" stroke-miterlimit="10"/>
<path d="M93.4605 83.5005L91.7305 81.7705" stroke="#3C4043" stroke-miterlimit="10" stroke-linecap="round"/>
<path d="M90.0301 82.4802C91.3611 82.4802 92.4401 81.4012 92.4401 80.0702C92.4401 78.7391 91.3611 77.6602 90.0301 77.6602C88.6991 77.6602 87.6201 78.7391 87.6201 80.0702C87.6201 81.4012 88.6991 82.4802 90.0301 82.4802Z" fill="white" stroke="#3C4043" stroke-miterlimit="10"/>
<path d="M4.5 140.49H174.58" stroke="#3C4043" stroke-miterlimit="10" stroke-linecap="round"/>
</svg>
