<svg width="277" height="377" viewBox="0 0 277 377" fill="none" xmlns="http://www.w3.org/2000/svg">
<rect width="277" height="377" fill="#D4E8D1"/>
<path d="M241.575 175.974C239.793 154.676 232.596 134.186 220.666 116.449C201.553 88.2036 170.359 72.9465 136.423 81.2618C104.334 89.1296 96.1889 123.857 69.4531 139.245C48.935 151.053 17.8469 170.318 22.821 204.499C24.4438 215.642 31.8241 223.765 41.9464 228.345C55.7868 234.591 75.1423 232.074 87.4842 241.166C101.785 251.731 113.598 266.646 144.686 277.832C169.277 286.682 197.008 276.092 215.567 259.344C238.46 238.73 244.168 205.487 241.575 175.974Z" fill="#6DDD81"/>
<path opacity="0.7" d="M241.575 175.974C239.793 154.676 232.596 134.186 220.666 116.449C201.553 88.2036 170.359 72.9465 136.423 81.2618C104.334 89.1296 96.1889 123.857 69.4531 139.245C48.935 151.053 17.8469 170.318 22.821 204.499C24.4438 215.642 31.8241 223.765 41.9464 228.345C55.7868 234.591 75.1423 232.074 87.4842 241.166C101.785 251.731 113.598 266.646 144.686 277.832C169.277 286.682 197.008 276.092 215.567 259.344C238.46 238.73 244.168 205.487 241.575 175.974Z" fill="white"/>
<path d="M250.66 288.099L246.432 283.923C249.951 278.827 248.434 275.073 245.412 271.618C243.59 269.536 238.828 269.853 232.977 270.605L200.645 238.68L195.671 240.544C195.671 240.544 209.126 256.92 221.729 271.978C216.494 272.444 211.228 272.45 206.863 270.996C193.806 266.646 183.236 257.324 183.236 257.324C168.314 258.567 190.697 282.804 199.402 289.64C216.811 303.312 226.063 300.827 238.424 291.616C240.643 294.152 242.247 295.898 242.925 296.476L243.056 296.588C248.627 301.212 255.808 293.189 250.66 288.099Z" fill="#6DDD81"/>
<path opacity="0.5" d="M250.659 288.099L246.432 283.923C249.951 278.827 248.434 275.073 245.412 271.618C243.59 269.536 238.827 269.853 232.977 270.605L200.645 238.68L195.671 240.544C195.671 240.544 209.126 256.92 221.729 271.978C216.494 272.444 211.227 272.45 206.863 270.996C193.806 266.646 183.236 257.324 183.236 257.324C168.313 258.567 190.224 283.457 199.401 289.64C219.92 303.449 226.063 300.827 238.423 291.616C240.643 294.152 242.247 295.898 242.925 296.476L243.055 296.588C248.626 301.212 255.808 293.189 250.659 288.099Z" fill="white"/>
<path d="M53.1069 175.482C53.1069 175.482 69.4592 194.375 69.5462 217.78C69.6333 241.184 53.4302 260.232 53.4302 260.232C53.4302 260.232 37.0778 241.339 36.9908 217.941C36.9038 194.543 53.1069 175.482 53.1069 175.482Z" fill="#6DDD81"/>
<path d="M89.0388 229.016C89.0388 229.016 89.1383 244.397 80.8751 254.173C72.6119 263.949 59.1134 264.421 59.1134 264.421C59.1134 264.421 59.0077 249.04 67.2772 239.264C75.5466 229.488 89.0388 229.016 89.0388 229.016Z" fill="#6DDD81"/>
<path d="M18.0149 227.592C18.0149 227.592 17.331 242.955 25.2211 253.122C33.1113 263.29 46.5849 264.421 46.5849 264.421C46.5849 264.421 47.2626 249.058 39.3724 238.891C31.4823 228.723 18.0149 227.592 18.0149 227.592Z" fill="#6DDD81"/>
<g opacity="0.5">
<path d="M53.1069 175.482C53.1069 175.482 69.4592 194.375 69.5462 217.78C69.6333 241.184 53.4302 260.232 53.4302 260.232C53.4302 260.232 37.0778 241.339 36.9908 217.941C36.9038 194.543 53.1069 175.482 53.1069 175.482Z" fill="white"/>
<path d="M89.0388 229.016C89.0388 229.016 89.1383 244.397 80.8751 254.173C72.6119 263.949 59.1134 264.421 59.1134 264.421C59.1134 264.421 59.0077 249.04 67.2772 239.264C75.5466 229.488 89.0388 229.016 89.0388 229.016Z" fill="white"/>
<path d="M18.0149 227.592C18.0149 227.592 17.331 242.955 25.2211 253.122C33.1113 263.29 46.5849 264.421 46.5849 264.421C46.5849 264.421 47.2626 249.058 39.3724 238.891C31.4823 228.723 18.0149 227.592 18.0149 227.592Z" fill="white"/>
</g>
<path d="M43.0719 238.611C43.1009 238.557 43.1423 238.511 43.1928 238.476C43.2432 238.441 43.3012 238.419 43.362 238.411C43.4228 238.403 43.4846 238.41 43.5423 238.431C43.6 238.451 43.6519 238.486 43.6937 238.53L52.2864 246.206C52.353 246.257 52.4333 246.289 52.5175 246.295C52.6016 246.301 52.6857 246.283 52.7594 246.242C52.833 246.201 52.8929 246.139 52.9316 246.064C52.9702 245.989 52.9859 245.904 52.9766 245.82L52.8833 228.115C52.8825 227.981 52.8315 227.852 52.7403 227.754L39.8388 214.759C39.7524 214.668 39.7012 214.55 39.6943 214.424C39.6875 214.299 39.7255 214.175 39.8015 214.076C39.8346 214.025 39.8789 213.983 39.9309 213.953C39.983 213.922 40.0414 213.904 40.1016 213.9C40.1617 213.896 40.2221 213.905 40.2779 213.928C40.3337 213.951 40.3834 213.987 40.4232 214.032L52.1932 225.89C52.2557 225.951 52.3357 225.99 52.422 226.003C52.5083 226.016 52.5965 226.002 52.6741 225.962C52.7517 225.922 52.8149 225.859 52.8546 225.781C52.8944 225.704 52.9088 225.616 52.8958 225.529L52.8212 206.046C52.8229 205.912 52.7715 205.782 52.6782 205.686L44.1165 197.271C44.0292 197.181 43.9768 197.063 43.9688 196.937C43.9609 196.812 43.9978 196.688 44.073 196.588C44.1056 196.537 44.1495 196.494 44.2013 196.463C44.253 196.432 44.3113 196.413 44.3715 196.409C44.4317 196.404 44.4922 196.413 44.5483 196.435C44.6044 196.458 44.6545 196.493 44.6947 196.538L52.0875 203.877C52.3611 204.151 52.7901 203.927 52.7901 203.511L52.6657 175.967C52.6588 175.847 52.6992 175.729 52.7783 175.639C52.8573 175.548 52.9686 175.492 53.0885 175.482C53.1482 175.486 53.2066 175.501 53.2604 175.526C53.3143 175.552 53.3625 175.588 53.4024 175.633C53.4422 175.677 53.4729 175.729 53.4927 175.785C53.5124 175.842 53.5209 175.901 53.5175 175.961L53.673 216.742C53.6623 216.837 53.6842 216.932 53.735 217.013C53.7858 217.094 53.8626 217.156 53.9528 217.187C54.0429 217.219 54.1412 217.219 54.2316 217.188C54.3219 217.157 54.399 217.096 54.4502 217.015L64.0253 201.062C64.0529 201.012 64.091 200.968 64.1371 200.934C64.1831 200.9 64.236 200.876 64.2921 200.864C64.3482 200.853 64.4062 200.853 64.4621 200.866C64.518 200.878 64.5705 200.903 64.616 200.938C64.7108 201.019 64.774 201.13 64.7945 201.253C64.8149 201.376 64.7914 201.502 64.7279 201.609L53.7538 219.886L53.6854 219.83L53.7476 236.542C53.7368 236.628 53.7529 236.715 53.7937 236.792C53.8345 236.869 53.8979 236.931 53.9754 236.971C54.0529 237.01 54.1407 237.025 54.2267 237.012C54.3128 237 54.393 236.962 54.4564 236.902L66.1331 224.945C66.1717 224.898 66.2209 224.861 66.2766 224.837C66.3322 224.813 66.3928 224.802 66.4534 224.806C66.514 224.809 66.5729 224.827 66.6253 224.858C66.6777 224.889 66.7221 224.931 66.7548 224.982C66.8308 225.082 66.8688 225.206 66.862 225.331C66.8551 225.456 66.8039 225.575 66.7175 225.666L53.7787 238.922L53.8595 259.754C53.8637 259.813 53.8561 259.873 53.8371 259.93C53.8182 259.986 53.7882 260.039 53.7489 260.084C53.7096 260.129 53.6618 260.166 53.6082 260.192C53.5546 260.219 53.4964 260.234 53.4367 260.238C53.3768 260.236 53.318 260.222 53.2637 260.196C53.2094 260.171 53.1609 260.134 53.1209 260.09C53.0808 260.045 53.0502 259.993 53.0308 259.936C53.0113 259.88 53.0035 259.82 53.0077 259.76L52.9642 248.3C52.9651 248.229 52.9512 248.159 52.9234 248.093C52.8955 248.028 52.8544 247.969 52.8025 247.921L43.1465 239.301C43.0529 239.214 42.9938 239.097 42.98 238.97C42.9663 238.843 42.999 238.716 43.0719 238.611Z" fill="white"/>
<path d="M18.4685 228.606C18.5083 228.56 18.5581 228.525 18.6139 228.502C18.6697 228.479 18.73 228.469 18.7902 228.473C18.8504 228.478 18.9088 228.496 18.9608 228.526C19.0129 228.557 19.0572 228.599 19.0903 228.649L32.0602 245.143C32.3338 245.497 32.8499 245.236 32.7939 244.764L31.7307 235.143C31.7087 235.023 31.7349 234.899 31.8035 234.798C31.8721 234.697 31.9777 234.627 32.0975 234.603C32.1562 234.598 32.2153 234.604 32.2713 234.623C32.3272 234.641 32.3788 234.671 32.423 234.71C32.4672 234.749 32.503 234.796 32.5283 234.849C32.5536 234.903 32.5678 234.96 32.5701 235.019L33.9628 247.554L38.9867 253.999C39.0412 254.066 39.1152 254.114 39.1985 254.137C39.2818 254.161 39.3703 254.157 39.4516 254.128C39.5329 254.098 39.603 254.045 39.6523 253.974C39.7016 253.903 39.7275 253.818 39.7266 253.732L40.6405 244.534C40.6429 244.474 40.6571 244.416 40.6822 244.362C40.7074 244.309 40.743 244.26 40.7869 244.22C40.8309 244.18 40.8824 244.15 40.9384 244.13C40.9944 244.11 41.0538 244.102 41.1131 244.105C41.2328 244.128 41.3389 244.196 41.4086 244.296C41.4783 244.396 41.5061 244.519 41.4861 244.639L40.3981 255.552C40.3831 255.688 40.421 255.823 40.5038 255.932L47.2747 264.551C47.3504 264.651 47.3887 264.774 47.383 264.899C47.3773 265.024 47.328 265.143 47.2437 265.235C47.2043 265.281 47.1549 265.316 47.0994 265.34C47.0439 265.363 46.9837 265.374 46.9235 265.37C46.8634 265.366 46.8049 265.349 46.7525 265.319C46.7002 265.289 46.6555 265.248 46.6219 265.198L42.9659 260.543C42.9264 260.49 42.8746 260.448 42.815 260.42C42.7554 260.391 42.6898 260.378 42.624 260.381L35.8779 260.847C35.8182 260.847 35.7592 260.836 35.7042 260.813C35.6491 260.79 35.5991 260.757 35.5569 260.714C35.5148 260.672 35.4813 260.622 35.4585 260.567C35.4357 260.512 35.424 260.453 35.424 260.394C35.4115 260.272 35.4467 260.151 35.522 260.054C35.5974 259.958 35.7071 259.895 35.8281 259.878L41.2312 259.505C41.3157 259.489 41.3945 259.451 41.4599 259.395C41.5254 259.339 41.5753 259.268 41.6047 259.187C41.6341 259.106 41.6421 259.019 41.6279 258.934C41.6136 258.85 41.5777 258.77 41.5234 258.703L36.1079 251.811C36.0703 251.763 36.0222 251.724 35.9672 251.697C35.9123 251.67 35.852 251.656 35.7908 251.656H26.1411C26.0212 251.646 25.9098 251.59 25.8308 251.5C25.7518 251.409 25.7114 251.291 25.7183 251.171C25.714 251.111 25.7216 251.052 25.7406 250.995C25.7596 250.938 25.7896 250.886 25.8289 250.841C25.8682 250.796 25.916 250.759 25.9696 250.732C26.0231 250.706 26.0814 250.69 26.1411 250.686H34.2737C34.3673 250.683 34.4581 250.654 34.5356 250.601C34.6132 250.548 34.6743 250.475 34.712 250.389C34.7497 250.304 34.7623 250.209 34.7486 250.117C34.7349 250.024 34.6953 249.937 34.6343 249.866L28.6654 242.265C28.6278 242.215 28.579 242.175 28.5228 242.146C28.4667 242.118 28.4048 242.104 28.3421 242.104L22.1245 242.191C22.0648 242.188 22.0064 242.173 21.9526 242.147C21.8987 242.121 21.8505 242.085 21.8106 242.041C21.7708 241.996 21.7401 241.944 21.7203 241.888C21.7006 241.832 21.6921 241.772 21.6955 241.712C21.6904 241.653 21.6971 241.593 21.7153 241.536C21.7335 241.479 21.7628 241.426 21.8015 241.38C21.8403 241.335 21.8876 241.297 21.9409 241.27C21.9942 241.243 22.0524 241.226 22.112 241.221L26.8374 241.159C26.9246 241.146 27.0067 241.11 27.0754 241.055C27.1442 241 27.197 240.928 27.2287 240.846C27.2603 240.764 27.2695 240.675 27.2554 240.588C27.2413 240.501 27.2043 240.419 27.1483 240.351L18.4685 229.289C18.3886 229.193 18.3449 229.072 18.3449 228.947C18.3449 228.822 18.3886 228.702 18.4685 228.606Z" fill="white"/>
<path d="M62.4711 250.662C62.5299 250.658 62.589 250.665 62.645 250.684C62.7009 250.703 62.7526 250.732 62.7971 250.771C62.8416 250.809 62.878 250.857 62.9042 250.909C62.9304 250.962 62.9459 251.02 62.9499 251.078L63.6773 257.187C63.6781 257.271 63.7043 257.353 63.7525 257.422C63.8006 257.491 63.8686 257.544 63.9473 257.573C64.026 257.603 64.1118 257.608 64.1935 257.588C64.2752 257.568 64.3488 257.524 64.4048 257.461L70.0317 250.805C70.1158 250.7 70.1559 250.566 70.1437 250.432L69.4535 239.469C69.4376 239.349 69.4698 239.227 69.5431 239.131C69.6165 239.034 69.7251 238.971 69.8452 238.954C69.9042 238.952 69.963 238.962 70.018 238.983C70.073 239.005 70.1231 239.037 70.1654 239.078C70.2078 239.119 70.2414 239.169 70.2644 239.223C70.2873 239.277 70.2991 239.336 70.2991 239.395L70.9209 248.636C70.9184 248.722 70.9423 248.807 70.9894 248.879C71.0364 248.951 71.1044 249.007 71.1842 249.04C71.264 249.072 71.3518 249.079 71.4358 249.06C71.5199 249.042 71.5962 248.998 71.6545 248.934L77.8722 241.582C77.9561 241.474 77.998 241.34 77.9903 241.203L77.4494 234.168C77.4346 234.048 77.4662 233.926 77.5378 233.828C77.6094 233.73 77.7155 233.663 77.8349 233.64C77.8942 233.638 77.9532 233.648 78.0086 233.67C78.0639 233.691 78.1145 233.723 78.1573 233.764C78.2001 233.805 78.2343 233.855 78.2579 233.909C78.2816 233.963 78.2942 234.022 78.295 234.081L78.7053 239.438C78.7022 239.524 78.7256 239.608 78.7723 239.68C78.819 239.752 78.8868 239.808 78.9663 239.84C79.0459 239.872 79.1334 239.878 79.2169 239.859C79.3004 239.839 79.3758 239.794 79.4328 239.73L88.4794 229.029C88.516 228.981 88.563 228.942 88.617 228.916C88.6709 228.889 88.7302 228.875 88.7903 228.875C88.8504 228.875 88.9097 228.889 88.9636 228.916C89.0175 228.942 89.0646 228.981 89.1012 229.029C89.1811 229.125 89.2248 229.246 89.2248 229.37C89.2248 229.495 89.1811 229.616 89.1012 229.712L75.6214 245.665C75.3292 246.007 75.6214 246.567 76.0069 246.473L84.3571 244.541C84.4149 244.531 84.4741 244.533 84.531 244.547C84.5879 244.561 84.6413 244.587 84.6879 244.623C84.7345 244.658 84.7733 244.703 84.802 244.754C84.8307 244.805 84.8486 244.861 84.8545 244.92C84.882 245.039 84.8633 245.164 84.8021 245.27C84.741 245.376 84.642 245.455 84.525 245.491L73.6007 248.002L68.3343 254.217C68.2753 254.283 68.2353 254.365 68.2184 254.452C68.2014 254.539 68.2082 254.629 68.2381 254.713C68.2679 254.797 68.3197 254.871 68.3881 254.928C68.4564 254.985 68.5387 255.023 68.6266 255.037L76.7468 255.391C76.8065 255.397 76.8645 255.414 76.9175 255.442C76.9705 255.47 77.0175 255.508 77.0556 255.554C77.0938 255.601 77.1224 255.654 77.1398 255.711C77.1573 255.769 77.1631 255.829 77.1571 255.889C77.1597 255.948 77.1501 256.007 77.129 256.063C77.108 256.119 77.0759 256.17 77.0346 256.213C76.9934 256.256 76.9439 256.29 76.889 256.313C76.8342 256.337 76.7753 256.348 76.7157 256.348L67.0784 255.932C67.0166 255.93 66.9552 255.943 66.8991 255.968C66.843 255.994 66.7937 256.033 66.7551 256.081L59.7167 264.409C59.6801 264.457 59.6331 264.495 59.5792 264.522C59.5253 264.548 59.466 264.562 59.4058 264.562C59.3457 264.562 59.2864 264.548 59.2325 264.522C59.1786 264.495 59.1315 264.457 59.095 264.409C59.0151 264.313 58.9713 264.192 58.9713 264.067C58.9713 263.942 59.0151 263.821 59.095 263.725L62.9001 259.226C62.9446 259.17 62.9774 259.107 62.9966 259.038C63.0159 258.97 63.0211 258.899 63.0121 258.828L62.1043 251.196C62.0872 251.078 62.1154 250.957 62.1834 250.858C62.2513 250.759 62.354 250.689 62.4711 250.662Z" fill="white"/>
<path d="M217.556 237.703L125.194 263.687C124.197 263.932 123.148 263.854 122.199 263.462C121.249 263.071 120.45 262.388 119.915 261.512L49.8736 135.515C49.6361 135.141 49.4929 134.715 49.4565 134.273C49.4201 133.831 49.4915 133.387 49.6645 132.979C49.8375 132.57 50.107 132.21 50.4499 131.929C50.7928 131.648 51.1988 131.454 51.6332 131.364L143.996 105.38C144.991 105.134 146.039 105.212 146.988 105.602C147.936 105.992 148.735 106.674 149.268 107.549L219.297 233.546C219.535 233.92 219.678 234.345 219.716 234.786C219.753 235.227 219.683 235.671 219.513 236.079C219.342 236.487 219.074 236.848 218.734 237.131C218.393 237.414 217.989 237.61 217.556 237.703Z" fill="#263238" stroke="black" stroke-miterlimit="10"/>
<path d="M123.894 258.163C123.894 258.163 177.266 245.473 213.192 233.037L123.894 258.163Z" fill="#884849"/>
<path d="M213.192 233.037L123.894 258.163L54.8227 133.919L144.12 108.799L213.192 233.037Z" fill="white" stroke="#263238" stroke-miterlimit="10"/>
<path d="M117.67 135.112L124.603 133.16" stroke="#263238" stroke-miterlimit="10"/>
<path d="M69.5835 148.641L112.305 136.622" stroke="#263238" stroke-miterlimit="10"/>
<path d="M110.067 142.83L127.289 137.983" stroke="#263238" stroke-miterlimit="10"/>
<path d="M83.6727 150.257L105.366 144.154" stroke="#263238" stroke-miterlimit="10"/>
<path d="M72.263 153.464L79.6433 151.388" stroke="#263238" stroke-miterlimit="10"/>
<path d="M96.4188 152.252L129.975 142.811" stroke="#263238" stroke-miterlimit="10"/>
<path d="M74.9492 158.293L89.0383 154.328" stroke="#263238" stroke-miterlimit="10"/>
<path d="M148.765 131.477C147.881 130.034 146.562 128.908 144.998 128.263C143.434 127.617 141.704 127.485 140.06 127.885C136.845 128.792 135.546 131.862 137.15 134.752C138.031 136.197 139.35 137.324 140.915 137.97C142.48 138.616 144.21 138.747 145.855 138.344C149.038 137.443 150.369 134.367 148.765 131.477Z" fill="white" stroke="#263238" stroke-miterlimit="10"/>
<path d="M88.479 168.205L81.5463 170.157" stroke="#263238" stroke-miterlimit="10"/>
<path d="M136.566 154.675L93.8443 166.694" stroke="#263238" stroke-miterlimit="10"/>
<path d="M101.449 170.138L84.2259 174.985" stroke="#263238" stroke-miterlimit="10"/>
<path d="M127.842 162.712L106.149 168.815" stroke="#263238" stroke-miterlimit="10"/>
<path d="M139.252 159.505L131.871 161.581" stroke="#263238" stroke-miterlimit="10"/>
<path d="M120.462 170.367L86.912 179.807" stroke="#263238" stroke-miterlimit="10"/>
<path d="M141.938 164.327L127.843 168.292" stroke="#263238" stroke-miterlimit="10"/>
<path d="M160.727 152.998C159.846 151.553 158.528 150.425 156.963 149.779C155.398 149.134 153.667 149.003 152.023 149.406C148.808 150.307 147.509 153.383 149.113 156.242C149.993 157.688 151.312 158.816 152.877 159.461C154.443 160.107 156.173 160.238 157.818 159.834C161.026 158.958 162.332 155.881 160.727 152.998Z" fill="white" stroke="#263238" stroke-miterlimit="10"/>
<path d="M141.596 178.143L148.529 176.191" stroke="#263238" stroke-miterlimit="10"/>
<path d="M93.5085 191.672L136.23 179.653" stroke="#263238" stroke-miterlimit="10"/>
<path d="M133.992 185.867L151.215 181.02" stroke="#263238" stroke-miterlimit="10"/>
<path d="M107.598 193.294L129.291 187.185" stroke="#263238" stroke-miterlimit="10"/>
<path d="M96.1886 196.501L103.569 194.425" stroke="#263238" stroke-miterlimit="10"/>
<path d="M120.344 195.282L153.894 185.848" stroke="#263238" stroke-miterlimit="10"/>
<path d="M98.8749 201.33L112.964 197.365" stroke="#263238" stroke-miterlimit="10"/>
<path d="M173.075 178.584C174.141 175.875 172.225 172.587 168.795 171.239C165.366 169.892 161.723 170.996 160.658 173.704C159.592 176.413 161.508 179.701 164.938 181.049C168.367 182.396 172.01 181.292 173.075 178.584Z" fill="white" stroke="#263238" stroke-miterlimit="10"/>
<path d="M112.404 211.242L105.471 213.194" stroke="#263238" stroke-miterlimit="10"/>
<path d="M160.491 197.712L117.77 209.731" stroke="#263238" stroke-miterlimit="10"/>
<path d="M125.374 213.175L108.152 218.016" stroke="#263238" stroke-miterlimit="10"/>
<path d="M151.768 205.749L130.075 211.851" stroke="#263238" stroke-miterlimit="10"/>
<path d="M163.177 202.536L155.797 204.611" stroke="#263238" stroke-miterlimit="10"/>
<path d="M144.387 213.404L110.837 222.844" stroke="#263238" stroke-miterlimit="10"/>
<path d="M165.857 207.364L151.768 211.329" stroke="#263238" stroke-miterlimit="10"/>
<path d="M184.646 196.029C183.765 194.584 182.446 193.458 180.881 192.812C179.316 192.166 177.586 192.035 175.942 192.437C172.727 193.344 171.428 196.414 173.032 199.304C173.913 200.749 175.232 201.876 176.797 202.522C178.362 203.168 180.092 203.299 181.737 202.896C184.951 202.014 186.257 198.906 184.646 196.029Z" fill="white" stroke="#263238" stroke-miterlimit="10"/>
<path d="M165.521 221.179L172.454 219.228" stroke="#263238" stroke-miterlimit="10"/>
<path d="M117.434 234.709L160.155 222.69" stroke="#263238" stroke-miterlimit="10"/>
<path d="M157.917 228.898L175.14 224.056" stroke="#263238" stroke-miterlimit="10"/>
<path d="M131.523 236.324L153.217 230.221" stroke="#263238" stroke-miterlimit="10"/>
<path d="M120.114 239.537L127.494 237.456" stroke="#263238" stroke-miterlimit="10"/>
<path d="M144.27 238.319L177.82 228.879" stroke="#263238" stroke-miterlimit="10"/>
<path d="M122.8 244.36L136.889 240.395" stroke="#263238" stroke-miterlimit="10"/>
<path d="M196.999 221.615C198.064 218.907 196.148 215.618 192.719 214.271C189.29 212.924 185.646 214.027 184.581 216.736C183.515 219.445 185.432 222.733 188.861 224.081C192.29 225.428 195.933 224.324 196.999 221.615Z" fill="white" stroke="#263238" stroke-miterlimit="10"/>
<path d="M113.89 110.906L102.151 114.206C101.262 114.243 100.286 114.175 100.012 113.721C99.3907 112.553 100.187 111.459 100.435 110.427C100.723 109.238 100.538 107.984 99.9192 106.928C99.013 105.444 97.6573 104.286 96.0485 103.623C94.4397 102.961 92.6616 102.827 90.972 103.243C87.6767 104.175 86.3461 107.326 87.9876 110.284C88.7929 111.651 90 112.736 91.4445 113.392C91.4445 113.392 93.8259 114.454 94.3047 115.312C94.5596 115.766 93.8943 116.3 93.2166 116.704L80.5637 120.265C80.0866 120.365 79.6409 120.579 79.2646 120.889C78.8883 121.199 78.5925 121.595 78.4025 122.044C78.2125 122.492 78.134 122.981 78.1736 123.466C78.2133 123.952 78.3698 124.421 78.63 124.833L80.3399 127.903L121.42 116.35L119.71 113.273C119.119 112.31 118.235 111.561 117.189 111.135C116.142 110.709 114.986 110.629 113.89 110.906ZM92.9803 106.891C93.5216 106.757 94.0916 106.799 94.6072 107.012C95.1228 107.224 95.557 107.595 95.8466 108.072C95.9753 108.275 96.0528 108.506 96.0722 108.746C96.0917 108.986 96.0527 109.226 95.9585 109.448C95.8644 109.669 95.7178 109.864 95.5316 110.016C95.3453 110.169 95.1248 110.273 94.8891 110.321C94.3494 110.456 93.7809 110.414 93.2664 110.203C92.752 109.992 92.3185 109.622 92.029 109.147C91.9005 108.944 91.823 108.712 91.8032 108.473C91.7834 108.233 91.8218 107.992 91.9153 107.771C92.0087 107.549 92.1544 107.353 92.3398 107.2C92.5252 107.047 92.745 106.941 92.9803 106.891Z" fill="#6DDD81" stroke="#263238" stroke-miterlimit="10"/>
<path d="M139.221 131.837L144.288 135.373L149.511 123.671" stroke="#6DDD81" stroke-width="6" stroke-linecap="round" stroke-linejoin="round"/>
<path d="M150.997 153.023L156.064 156.553L161.287 144.857" stroke="#6DDD81" stroke-width="6" stroke-linecap="round" stroke-linejoin="round"/>
<path d="M234.108 150.127C234.108 150.127 235.457 147.255 234.612 145.055C233.766 142.855 218.203 139.307 218.203 139.307C218.203 139.307 214.653 139.307 214.821 141.339C214.989 143.371 227.847 151.146 228.86 151.817C229.874 152.488 233.766 154.017 234.108 150.127Z" fill="white" stroke="#263238" stroke-linecap="round" stroke-linejoin="round"/>
<path d="M219.49 136.466C218.532 136.112 217.592 135.709 216.674 135.261C215.331 134.589 216.804 137.678 217.345 137.809C217.886 137.939 219.211 138.213 219.211 138.213L219.49 136.466Z" fill="white" stroke="#263238" stroke-linecap="round" stroke-linejoin="round"/>
<path d="M173.045 166.527L165.267 175.992L165.938 177.347L176.937 174.668L254.353 129.624C255.126 129.172 255.8 128.57 256.337 127.853C256.873 127.136 257.26 126.32 257.476 125.451C257.692 124.582 257.731 123.679 257.592 122.795C257.453 121.91 257.138 121.063 256.666 120.302C256.194 119.549 255.577 118.897 254.851 118.384C254.125 117.871 253.304 117.508 252.436 117.315C251.568 117.123 250.67 117.105 249.795 117.262C248.92 117.42 248.085 117.75 247.339 118.233L173.045 166.527Z" fill="#6DDD81" stroke="#263238" stroke-linecap="round" stroke-linejoin="round"/>
<path d="M211.942 148.983L209.418 150.611" stroke="#263238" stroke-linecap="round" stroke-linejoin="round"/>
<path d="M233.673 135.012L215.026 147.007" stroke="#263238" stroke-linecap="round" stroke-linejoin="round"/>
<path d="M165.988 175.793C165.988 175.793 164.054 176.6 164.353 177.415C164.651 178.229 167.424 176.259 167.424 176.259L165.988 175.793Z" fill="#6DDD81" stroke="#263238" stroke-linecap="round" stroke-linejoin="round"/>
<path d="M165.267 175.992L165.938 177.347L176.937 174.668C170.844 172.3 173.045 166.552 173.045 166.552L165.267 175.992Z" fill="white" stroke="#263238" stroke-linecap="round" stroke-linejoin="round"/>
<path d="M256.666 120.259C256.194 119.505 255.577 118.853 254.851 118.34C254.125 117.827 253.304 117.464 252.436 117.272C251.568 117.079 250.67 117.061 249.795 117.218C248.92 117.376 248.085 117.706 247.339 118.189L233.834 126.977C233.471 127.903 233.285 128.89 233.287 129.885C233.249 131.88 234.002 133.81 235.383 135.252C236.764 136.693 238.659 137.53 240.655 137.579L254.377 129.599C255.151 129.145 255.825 128.541 256.361 127.821C256.897 127.102 257.283 126.283 257.496 125.412C257.709 124.541 257.746 123.636 257.603 122.751C257.46 121.866 257.142 121.018 256.666 120.259Z" fill="white" stroke="#263238" stroke-linecap="round" stroke-linejoin="round"/>
<path d="M256.666 120.259C256.194 119.505 255.577 118.853 254.851 118.34C254.125 117.827 253.304 117.464 252.436 117.272C251.568 117.079 250.671 117.061 249.795 117.218C248.92 117.376 248.086 117.706 247.339 118.189L237.08 124.87C236.584 125.893 236.327 127.015 236.328 128.151C236.315 129.119 236.493 130.079 236.851 130.978C237.21 131.876 237.742 132.695 238.418 133.388C239.094 134.081 239.899 134.633 240.789 135.014C241.679 135.395 242.635 135.597 243.603 135.609C243.77 135.609 243.944 135.609 244.106 135.609L254.378 129.637C255.156 129.182 255.835 128.576 256.374 127.854C256.913 127.132 257.301 126.309 257.515 125.433C257.728 124.558 257.763 123.649 257.617 122.76C257.471 121.87 257.148 121.02 256.666 120.259Z" fill="#263238" stroke="#263238" stroke-linecap="round" stroke-linejoin="round"/>
<path d="M210.904 139.556C210.904 139.556 209.399 139.556 209.399 140.239C209.399 140.923 209.001 143.347 209.872 143.278C210.742 143.21 210.668 141.687 210.742 141.153C210.817 140.618 210.904 139.556 210.904 139.556Z" fill="white" stroke="#263238" stroke-linecap="round" stroke-linejoin="round"/>
<path d="M212.545 137.081C212.545 137.081 211.202 136.665 210.891 137.491C210.581 138.318 210.27 142.246 211.202 142.14C212.135 142.034 212.34 138.529 212.545 137.081Z" fill="white" stroke="#263238" stroke-linecap="round" stroke-linejoin="round"/>
<path d="M214.616 137.287C214.616 137.287 213.062 135.944 212.546 137.082C212.03 138.219 211.924 141.432 212.546 141.432C213.167 141.432 214.1 140.089 214.305 139.369C214.46 138.683 214.564 137.987 214.616 137.287Z" fill="white" stroke="#263238" stroke-linecap="round" stroke-linejoin="round"/>
<path d="M216.81 137.908C216.81 137.908 214.846 136.255 214.535 136.566C214.224 136.877 212.98 140.059 213.913 140.699C214.846 141.339 216.027 138.48 216.027 138.48L216.81 137.908Z" fill="white" stroke="#263238" stroke-linecap="round" stroke-linejoin="round"/>
<path d="M188.415 147.715C188.415 147.715 188.632 151.027 189.515 151.804C190.049 152.266 190.531 152.785 190.952 153.351C191.074 154.194 191.148 155.042 191.175 155.893C191.175 156.887 191.841 156.776 192.419 156.776C192.997 156.776 193.967 158.64 194.521 159.535C195.575 160.837 196.835 161.958 198.251 162.854C199.246 163.407 200.906 161.306 200.906 161.306L201.677 163.519L209.53 158.435L205.663 150.915C205.434 148.308 204.641 145.783 203.337 143.513C201.124 139.536 198.139 137.299 193.165 138.759C188.191 140.22 188.415 147.715 188.415 147.715Z" fill="white" stroke="#263238" stroke-linecap="round" stroke-linejoin="round"/>
<path d="M197.499 132.986C195.644 133.067 193.814 133.434 192.071 134.074C189.167 135.099 188.452 139.139 185.922 140.587C183.391 142.035 184.473 139.344 183.205 140.04C181.936 140.736 180.674 147.094 183.385 148.902C186.096 150.711 190.081 148.362 190.081 148.362C190.081 148.362 189.721 149.604 190.803 149.99C191.457 150.207 192.124 150.387 192.798 150.53C192.798 150.53 192.612 152.706 194.241 152.519C195.87 152.333 194.427 149.81 194.427 149.81C194.427 149.81 197.505 155.776 199.862 156.503C202.218 157.23 205.65 153.967 206.552 152.519C207.453 151.071 206.732 140.767 204.742 136.79C202.753 132.812 197.499 132.986 197.499 132.986Z" fill="#263238" stroke="#263238" stroke-linecap="round" stroke-linejoin="round"/>
<path d="M194.496 153.682C194.496 153.682 193.389 149.48 195.155 150.034C196.92 150.587 197.921 154.347 197.81 154.788C197.698 155.229 196.815 155.447 196.373 155.341" fill="white"/>
<path d="M194.496 153.682C194.496 153.682 193.389 149.48 195.155 150.034C196.92 150.587 197.921 154.347 197.81 154.788C197.698 155.229 196.815 155.447 196.373 155.341" stroke="#263238" stroke-linecap="round" stroke-linejoin="round"/>
<path d="M207.273 155.204C205.211 156.362 203.241 157.675 201.378 159.132C199.513 160.791 197.841 165.763 197.841 165.763C197.841 165.763 209.231 158.026 211.221 156.926C213.211 155.826 213.652 155.266 213.652 155.266C213.652 155.266 209.486 154.651 207.273 155.204Z" fill="white" stroke="#263238" stroke-linecap="round" stroke-linejoin="round"/>
<path d="M222.605 148.436C223.087 147.584 223.742 146.843 224.528 146.261C225.314 145.678 226.214 145.267 227.169 145.055C230.384 144.378 234.63 146.578 235.121 150.126C235.613 153.675 232.92 155.371 231.229 155.371C229.538 155.371 228.015 153.004 228.015 153.004C228.015 153.004 222.605 150.971 222.605 148.436Z" fill="white" stroke="#263238" stroke-linecap="round" stroke-linejoin="round"/>
<path d="M177.273 186.14L182.688 171.766C182.083 172.307 181.3 172.608 180.487 172.611C179.132 172.611 175.924 172.108 176.757 171.598C177.59 171.088 180.811 168.895 180.811 168.895C180.811 168.895 178.448 169.404 177.77 168.895C177.092 168.385 176.757 167.708 177.26 167.54C177.764 167.372 178.784 167.54 180.643 166.862C182.502 166.185 183.347 165.514 184.871 165.514C186.394 165.514 187.749 168.217 187.749 169.062C187.749 169.908 186.562 185.966 186.562 186.644C186.562 187.321 186.562 187.999 182.166 188.508C177.77 189.018 177.105 187.999 177.273 186.14Z" fill="white" stroke="#263238" stroke-linecap="round" stroke-linejoin="round"/>
<path d="M182.688 171.766L183.49 168.609" stroke="#263238" stroke-linecap="round" stroke-linejoin="round"/>
<path d="M182.514 182.586C182.514 182.586 177.105 184.109 176.092 186.477C175.078 188.844 175.246 192.393 177.273 194.425C179.3 196.457 180.152 196.961 182.347 196.116C184.541 195.27 185.057 193.916 185.225 192.561C185.393 191.206 186.575 186.644 182.514 182.586Z" fill="white" stroke="#263238" stroke-linecap="round" stroke-linejoin="round"/>
<path d="M180.32 254.272C180.32 254.272 175.582 252.072 173.723 252.917C171.864 253.762 171.857 254.607 174.226 258.33C176.595 262.053 183.192 266.614 185.418 265.595C187.644 264.576 185.586 257.82 185.586 257.82L180.32 254.272Z" fill="white" stroke="#263238" stroke-linecap="round" stroke-linejoin="round"/>
<path d="M176.937 259.511C175.294 257.692 173.913 255.653 172.834 253.452C171.963 254.223 172.336 255.354 174.226 258.33C176.595 262.059 183.192 266.615 185.418 265.595C185.701 265.414 185.934 265.165 186.095 264.871C186.257 264.577 186.343 264.247 186.345 263.911C183.236 265.223 180.021 262.917 176.937 259.511Z" fill="white" stroke="#263238" stroke-linecap="round" stroke-linejoin="round"/>
<path d="M204.674 202.534L204.842 207.612C204.842 207.612 194.527 211.496 189.453 215.069C184.38 218.643 180.997 221.321 180.487 224.702C179.978 228.083 180.32 254.29 180.32 254.29C180.32 254.29 178.796 254.626 179.306 255.639C179.816 256.652 180.823 260.375 182.179 260.71C183.534 261.046 185.225 261.729 185.561 260.884C185.897 260.039 186.916 254.968 187.594 253.277C188.272 251.587 189.453 243.651 190.467 238.058C191.06 234.935 191.399 231.77 191.48 228.593C195.052 228.095 198.565 227.246 201.969 226.057C207.888 224.025 216.512 220.308 216.512 220.308C216.512 220.308 223.451 237.71 224.974 241.103C226.498 244.496 232.436 252.09 233.598 254.29C234.761 256.49 242.222 265.955 242.222 265.955C242.222 265.955 245.101 263.42 246.96 263.42H249.497C249.497 263.42 246.45 254.968 243.901 249.89C241.352 244.813 236.123 236.535 236.123 236.535C236.123 236.535 231.391 206.959 231.217 204.921C230.887 201.018 228.388 195.127 228.388 195.127C228.388 195.127 220.237 193.405 204.674 202.534Z" fill="#263238" stroke="#263238" stroke-linecap="round" stroke-linejoin="round"/>
<path d="M242.222 265.937C241.787 266.646 241.393 267.378 241.041 268.131C240.873 268.641 237.148 269.15 237.658 270.841C238.168 272.531 242.054 273.88 243.913 274.054C245.772 274.228 249.509 271.686 250.174 271.009C250.572 270.611 251.169 267.982 250.852 265.937C250.645 264.982 250.176 264.104 249.496 263.402C249.496 263.402 246.282 258.498 242.222 265.937Z" fill="white" stroke="#263238" stroke-linecap="round" stroke-linejoin="round"/>
<path d="M250.852 265.937C250.679 265.078 250.282 264.281 249.702 263.625C249.002 263.63 248.31 263.778 247.669 264.059C247.027 264.34 246.45 264.748 245.971 265.259C244.28 267.285 245.126 271.853 243.092 272.53C241.582 273.034 238.939 271.188 237.696 270.219C237.626 270.42 237.626 270.639 237.696 270.84C238.199 272.53 242.091 273.879 243.95 274.053C245.809 274.227 249.546 271.685 250.212 271.008C250.572 270.61 251.169 267.981 250.852 265.937Z" fill="white" stroke="#263238" stroke-linecap="round" stroke-linejoin="round"/>
<path d="M246.45 267.118C245.779 270.163 246.624 272.189 243.913 274.053C245.779 274.221 249.509 271.685 250.175 271.008C250.573 270.61 251.169 267.982 250.852 265.937C250.78 265.513 250.639 265.104 250.436 264.725H250.175C250.175 264.725 247.128 264.079 246.45 267.118Z" fill="#263238" stroke="#263238" stroke-linecap="round" stroke-linejoin="round"/>
<path d="M218.203 219.948L228.183 215.051" stroke="white" stroke-linecap="round" stroke-linejoin="round"/>
<path d="M222.774 217.755L231.397 216.568" stroke="white" stroke-linecap="round" stroke-linejoin="round"/>
<path d="M226.137 147.255C223.265 147.591 215.822 152.662 215.312 153.172C214.802 153.681 212.776 154.862 211.93 155.54C211.93 155.54 194.521 166.359 192.985 167.348C191.449 168.336 188.421 170.393 188.589 171.076C188.757 171.76 179.623 186.613 179.623 186.613C179.623 186.613 176.919 190.168 179.455 193.375C181.992 196.581 184.361 194.394 185.542 193.717C186.724 193.039 196.032 184.245 196.032 184.245L204.612 204.754C204.612 204.754 216.494 196.793 229.184 197.296L220.722 164.159C220.722 164.159 232.398 155.372 232.734 152.352C233.07 149.331 229.028 146.914 226.137 147.255Z" fill="white"/>
<mask id="mask0_6_551" style="mask-type:luminance" maskUnits="userSpaceOnUse" x="178" y="147" width="55" height="58">
<path d="M226.137 147.255C223.265 147.591 215.822 152.662 215.312 153.172C214.802 153.681 212.776 154.862 211.93 155.54C211.93 155.54 194.521 166.359 192.985 167.348C191.449 168.336 188.421 170.393 188.589 171.076C188.757 171.76 179.623 186.613 179.623 186.613C179.623 186.613 176.919 190.168 179.455 193.375C181.992 196.581 184.361 194.394 185.542 193.717C186.724 193.039 196.032 184.245 196.032 184.245L204.612 204.754C204.612 204.754 216.494 196.793 229.184 197.296L220.722 164.159C220.722 164.159 232.398 155.372 232.734 152.352C233.07 149.331 229.028 146.914 226.137 147.255Z" fill="white"/>
</mask>
<g mask="url(#mask0_6_551)">
<path d="M226.137 147.255C224.987 147.392 223.103 148.287 221.219 149.343C221.649 149.26 222.093 149.306 222.496 149.474C222.9 149.642 223.245 149.925 223.489 150.288C224.888 152.084 221.891 157.87 221.891 157.87C221.891 157.87 220.647 149.878 220.697 152.276C220.747 154.675 220.075 162.052 220.075 162.052C220.075 162.052 216.084 157.267 216.283 158.46C216.481 159.653 219.074 170.827 220.672 175.016C222.27 179.205 219.472 190.969 217.88 194.356C216.289 197.743 217.259 180 215.48 184.413C213.702 188.825 207.702 200.962 206.303 202.162C204.904 203.361 206.751 185.898 207.248 183.623C206.627 185.525 202.517 197.575 202.517 197.575L196.921 183.213C196.921 183.213 187.346 175.439 188.341 176.831C189.335 178.223 191.735 182.617 191.735 182.617C191.735 182.617 185.947 181.417 186.948 181.821C187.949 182.225 192.332 184.413 192.332 184.413C192.332 184.413 183.354 190.795 180.761 191.591C180.064 191.795 179.347 191.927 178.622 191.982C178.809 192.503 179.08 192.99 179.424 193.424C181.961 196.637 184.33 194.443 185.512 193.766C186.693 193.088 196.001 184.294 196.001 184.294L204.581 204.803C204.581 204.803 216.463 196.842 229.153 197.345L220.691 164.209C220.691 164.209 232.368 155.421 232.703 152.401C233.039 149.38 229.029 146.913 226.137 147.255Z" fill="#6DDD81"/>
<path opacity="0.5" d="M226.137 147.255C224.987 147.392 223.103 148.287 221.219 149.343C221.649 149.26 222.093 149.306 222.496 149.474C222.9 149.642 223.245 149.925 223.489 150.288C224.888 152.084 221.891 157.87 221.891 157.87C221.891 157.87 220.647 149.878 220.697 152.276C220.747 154.675 220.075 162.052 220.075 162.052C220.075 162.052 216.084 157.267 216.283 158.46C216.481 159.653 219.074 170.827 220.672 175.016C222.27 179.205 219.472 190.969 217.88 194.356C216.289 197.743 217.259 180 215.48 184.413C213.702 188.825 207.702 200.962 206.303 202.162C204.904 203.361 206.751 185.898 207.248 183.623C206.627 185.525 202.517 197.575 202.517 197.575L196.921 183.213C196.921 183.213 187.346 175.439 188.341 176.831C189.335 178.223 191.735 182.617 191.735 182.617C191.735 182.617 185.947 181.417 186.948 181.821C187.949 182.225 192.332 184.413 192.332 184.413C192.332 184.413 183.354 190.795 180.761 191.591C180.064 191.795 179.347 191.927 178.622 191.982C178.809 192.503 179.08 192.99 179.424 193.424C181.961 196.637 184.33 194.443 185.512 193.766C186.693 193.088 196.001 184.294 196.001 184.294L204.581 204.803C204.581 204.803 216.463 196.842 229.153 197.345L220.691 164.209C220.691 164.209 232.368 155.421 232.703 152.401C233.039 149.38 229.029 146.913 226.137 147.255Z" fill="white"/>
</g>
<path d="M226.137 147.255C223.265 147.591 215.822 152.662 215.312 153.172C214.802 153.681 212.776 154.862 211.93 155.54C211.93 155.54 194.521 166.359 192.985 167.348C191.449 168.336 188.421 170.393 188.589 171.076C188.757 171.76 179.623 186.613 179.623 186.613C179.623 186.613 176.919 190.168 179.455 193.375C181.992 196.581 184.361 194.394 185.542 193.717C186.724 193.039 196.032 184.245 196.032 184.245L204.612 204.754C204.612 204.754 216.494 196.793 229.184 197.296L220.722 164.159C220.722 164.159 232.398 155.372 232.734 152.352C233.07 149.331 229.028 146.914 226.137 147.255Z" stroke="#263238" stroke-linecap="round" stroke-linejoin="round"/>
<path d="M204.63 204.754C204.135 200.103 204.376 195.403 205.345 190.827Z" fill="white"/>
<path d="M204.63 204.754C204.135 200.103 204.376 195.403 205.345 190.827" stroke="#263238" stroke-linecap="round" stroke-linejoin="round"/>
<path d="M203.026 194.394C203.026 194.394 203.026 191.535 206.24 182.586Z" fill="white"/>
<path d="M203.026 194.394C203.026 194.394 203.026 191.535 206.24 182.586" stroke="#263238" stroke-linecap="round" stroke-linejoin="round"/>
<path d="M189.453 176.844L196.05 184.276L189.285 179.373" fill="white"/>
<path d="M189.453 176.844L196.05 184.276L189.285 179.373" stroke="#263238" stroke-linecap="round" stroke-linejoin="round"/>
<path d="M220.74 154.694V164.159L222.941 151.991" fill="white"/>
<path d="M220.74 154.694V164.159L222.941 151.991" stroke="#263238" stroke-linecap="round" stroke-linejoin="round"/>
<path d="M207.347 183.368C207.323 183.437 207.304 183.508 207.291 183.58C207.366 183.368 207.391 183.288 207.347 183.368Z" fill="#263238"/>
</svg>
