<svg width="277" height="377" viewBox="0 0 277 377" fill="none" xmlns="http://www.w3.org/2000/svg">
<path d="M0 16C0 7.16344 7.16344 0 16 0H277V377H16C7.16344 377 0 369.837 0 361V16Z" fill="#D5E8D0"/>
<path d="M190.265 310.724H42.663C41.6215 310.722 40.6229 310.308 39.8864 309.572C39.1499 308.835 38.7356 307.837 38.7345 306.795L32 55.9436C31.999 55.4267 32.0998 54.9147 32.2967 54.4368C32.4935 53.9589 32.7826 53.5244 33.1474 53.1582C33.5122 52.792 33.9455 52.5012 34.4227 52.3025C34.8998 52.1038 35.4115 52.001 35.9284 52H183.53C184.571 52.0012 185.57 52.4154 186.306 53.1519C187.043 53.8884 187.457 54.887 187.458 55.9286L188.679 101.373L187.557 101.403L186.336 55.9436C186.337 55.5741 186.266 55.208 186.125 54.8662C185.985 54.5243 185.778 54.2136 185.518 53.9516C185.257 53.6896 184.947 53.4815 184.606 53.3392C184.265 53.197 183.899 53.1233 183.53 53.1224H35.9284C35.1844 53.1233 34.4711 53.4192 33.9451 53.9453C33.419 54.4714 33.1231 55.1846 33.1222 55.9286L39.8567 306.78C39.8556 307.149 39.9274 307.516 40.0678 307.857C40.2083 308.199 40.4147 308.51 40.6753 308.772C40.9359 309.034 41.2456 309.242 41.5867 309.384C41.9277 309.527 42.2935 309.6 42.663 309.601H190.265C191.008 309.6 191.722 309.304 192.248 308.778C192.774 308.252 193.07 307.539 193.071 306.795L191.76 257.984L192.882 257.954L194.193 306.78C194.194 307.297 194.093 307.809 193.896 308.287C193.699 308.765 193.41 309.199 193.046 309.565C192.681 309.932 192.247 310.222 191.77 310.421C191.293 310.62 190.781 310.723 190.265 310.724Z" fill="#CCCCCC"/>
<path d="M190.486 168.72L189.364 168.75L189.943 190.293L191.065 190.263L190.486 168.72Z" fill="#CCCCCC"/>
<path d="M177.02 288.616H54.7524C53.8641 288.615 53.0124 288.262 52.3843 287.634C51.7561 287.006 51.4028 286.154 51.4018 285.266L45.8233 77.4721C45.8222 77.0311 45.9079 76.5942 46.0757 76.1864C46.2435 75.7786 46.49 75.4078 46.8012 75.0952C47.1123 74.7827 47.4819 74.5345 47.889 74.3648C48.2961 74.1952 48.7326 74.1074 49.1736 74.1064H171.441C172.33 74.1075 173.181 74.4608 173.809 75.0889C174.437 75.7171 174.791 76.5687 174.792 77.4571L175.802 101.364L174.681 101.411L173.67 77.4806C173.672 77.1863 173.616 76.8945 173.505 76.6219C173.394 76.3493 173.23 76.1013 173.023 75.8922C172.816 75.683 172.57 75.5167 172.298 75.4029C172.027 75.2891 171.735 75.23 171.441 75.2289H49.1736C48.5829 75.2296 48.0165 75.4646 47.5988 75.8823C47.1811 76.3 46.9462 76.8663 46.9455 77.4571L52.524 285.251C52.5228 285.544 52.5796 285.835 52.6909 286.107C52.8023 286.379 52.9662 286.626 53.1732 286.834C53.3801 287.042 53.6261 287.208 53.8971 287.321C54.1681 287.434 54.4587 287.493 54.7524 287.494H177.02C177.611 287.493 178.177 287.258 178.595 286.84C179.012 286.423 179.247 285.856 179.248 285.266L178.526 257.983L179.648 257.953L180.37 285.251C180.371 285.692 180.286 286.129 180.118 286.536C179.95 286.944 179.703 287.315 179.392 287.628C179.081 287.94 178.712 288.188 178.305 288.358C177.897 288.528 177.461 288.615 177.02 288.616Z" fill="#CCCCCC"/>
<path d="M177.3 169.281L176.178 169.311L176.742 190.637L177.864 190.607L177.3 169.281Z" fill="#CCCCCC"/>
<path d="M209.554 169.295H66.442C65.406 169.294 64.4124 168.884 63.6768 168.155C62.9413 167.425 62.5232 166.435 62.5136 165.399L60.2686 104.755C60.2697 103.713 60.684 102.715 61.4205 101.978C62.157 101.242 63.1556 100.827 64.1971 100.826H207.309C208.345 100.827 209.339 101.237 210.074 101.967C210.81 102.696 211.228 103.686 211.237 104.722L213.482 165.367C213.481 166.408 213.067 167.407 212.33 168.143C211.594 168.88 210.595 169.294 209.554 169.295ZM61.3911 104.725L63.6359 165.367C63.6368 166.111 63.9327 166.824 64.4587 167.35C64.9848 167.876 65.698 168.172 66.442 168.173H209.554C210.293 168.172 211.001 167.88 211.527 167.36C212.052 166.841 212.351 166.135 212.36 165.396L210.115 104.755C210.114 104.011 209.818 103.298 209.292 102.771C208.766 102.245 208.053 101.949 207.309 101.949H64.1971C63.4583 101.949 62.7495 102.241 62.2243 102.761C61.6991 103.281 61.3998 103.986 61.3911 104.725Z" fill="#72796F"/>
<path d="M236.493 258.53H93.3815C92.3455 258.529 91.3518 258.119 90.6163 257.389C89.8807 256.66 89.4627 255.669 89.453 254.633L87.208 193.989C87.2092 192.948 87.6235 191.949 88.3599 191.212C89.0964 190.476 90.095 190.062 91.1366 190.061H234.248C235.284 190.062 236.278 190.472 237.014 191.201C237.749 191.931 238.167 192.921 238.177 193.957L240.422 254.601C240.421 255.643 240.006 256.641 239.27 257.378C238.533 258.114 237.535 258.529 236.493 258.53ZM88.3306 193.96L90.5753 254.601C90.5762 255.345 90.8721 256.058 91.3982 256.584C91.9242 257.11 92.6375 257.406 93.3815 257.407H236.493C237.232 257.406 237.941 257.115 238.466 256.595C238.991 256.075 239.29 255.37 239.299 254.631L237.054 193.989C237.054 193.245 236.758 192.532 236.232 192.006C235.706 191.48 234.992 191.184 234.248 191.183H91.1366C90.3977 191.184 89.6889 191.476 89.1638 191.995C88.6386 192.515 88.3392 193.221 88.3306 193.96Z" fill="#72796F"/>
<path d="M127.334 203.249C126.367 203.249 125.439 203.633 124.755 204.317C124.071 205.002 123.687 205.929 123.687 206.897C123.687 207.864 124.071 208.792 124.755 209.476C125.439 210.161 126.367 210.545 127.334 210.545H200.293C201.261 210.545 202.189 210.161 202.873 209.476C203.557 208.792 203.941 207.864 203.941 206.897C203.941 205.929 203.557 205.002 202.873 204.317C202.189 203.633 201.261 203.249 200.293 203.249H127.334Z" fill="#8CD88D"/>
<path d="M127.334 220.647C126.367 220.647 125.439 221.032 124.755 221.716C124.071 222.4 123.687 223.328 123.687 224.295C123.687 225.263 124.071 226.191 124.755 226.875C125.439 227.559 126.367 227.943 127.334 227.943H200.293C201.261 227.943 202.189 227.559 202.873 226.875C203.557 226.191 203.941 225.263 203.941 224.295C203.941 223.328 203.557 222.4 202.873 221.716C202.189 221.032 201.261 220.647 200.293 220.647H127.334Z" fill="#8CD88D"/>
<path d="M127.334 238.045C126.367 238.045 125.439 238.429 124.755 239.113C124.071 239.798 123.687 240.725 123.687 241.693C123.687 242.66 124.071 243.588 124.755 244.272C125.439 244.956 126.367 245.341 127.334 245.341H200.293C201.261 245.341 202.189 244.956 202.873 244.272C203.557 243.588 203.941 242.66 203.941 241.693C203.941 240.725 203.557 239.798 202.873 239.113C202.189 238.429 201.261 238.045 200.293 238.045H127.334Z" fill="#8CD88D"/>
<path d="M100.396 114.015C99.4285 114.015 98.5006 114.399 97.8165 115.083C97.1324 115.767 96.748 116.695 96.748 117.663C96.748 118.63 97.1324 119.558 97.8165 120.242C98.5006 120.926 99.4285 121.311 100.396 121.311H173.355C174.322 121.311 175.25 120.926 175.934 120.242C176.619 119.558 177.003 118.63 177.003 117.663C177.003 116.695 176.619 115.767 175.934 115.083C175.25 114.399 174.322 114.015 173.355 114.015H100.396Z" fill="#8CD88D"/>
<path d="M100.396 131.413C99.4285 131.413 98.5006 131.797 97.8165 132.482C97.1324 133.166 96.748 134.094 96.748 135.061C96.748 136.029 97.1324 136.956 97.8165 137.641C98.5006 138.325 99.4285 138.709 100.396 138.709H173.355C174.322 138.709 175.25 138.325 175.934 137.641C176.619 136.956 177.003 136.029 177.003 135.061C177.003 134.094 176.619 133.166 175.934 132.482C175.25 131.797 174.322 131.413 173.355 131.413H100.396Z" fill="#8CD88D"/>
<path d="M100.396 148.811C99.4285 148.811 98.5006 149.195 97.8165 149.879C97.1324 150.563 96.748 151.491 96.748 152.458C96.748 153.426 97.1324 154.354 97.8165 155.038C98.5006 155.722 99.4285 156.106 100.396 156.106H173.355C174.322 156.106 175.25 155.722 175.934 155.038C176.619 154.354 177.003 153.426 177.003 152.458C177.003 151.491 176.619 150.563 175.934 149.879C175.25 149.195 174.322 148.811 173.355 148.811H100.396Z" fill="#8CD88D"/>
<path d="M110.779 68.8368C113.879 68.8368 116.391 66.3241 116.391 63.2245C116.391 60.125 113.879 57.6123 110.779 57.6123C107.68 57.6123 105.167 60.125 105.167 63.2245C105.167 66.3241 107.68 68.8368 110.779 68.8368Z" fill="#E6E6E6"/>
<path d="M191.99 334.572H185.11L181.836 308.033L191.991 308.034L191.99 334.572Z" fill="#FFB8B8"/>
<path d="M180.194 332.606H193.463V340.961H171.839C171.839 339.864 172.055 338.778 172.475 337.764C172.895 336.75 173.51 335.829 174.286 335.054C175.062 334.278 175.983 333.662 176.996 333.242C178.01 332.823 179.097 332.606 180.194 332.606Z" fill="#72796F"/>
<path d="M241.913 326.78L235.655 329.638L221.65 306.858L230.887 302.64L241.913 326.78Z" fill="#FFB8B8"/>
<path d="M230.367 329.891L242.437 324.378L245.908 331.978L226.239 340.962C225.783 339.964 225.528 338.886 225.489 337.789C225.45 336.693 225.627 335.6 226.01 334.572C226.394 333.544 226.976 332.601 227.723 331.798C228.471 330.995 229.369 330.347 230.367 329.891Z" fill="#72796F"/>
<path d="M221.876 245.09C222.535 244.594 223.078 243.959 223.465 243.23C223.853 242.502 224.076 241.698 224.118 240.874C224.161 240.05 224.023 239.226 223.713 238.462C223.404 237.697 222.93 237.009 222.326 236.448L230.414 218.096L220.139 219.837L214.033 236.997C213.157 238.075 212.706 239.437 212.766 240.824C212.826 242.212 213.394 243.53 214.36 244.527C215.327 245.525 216.626 246.133 218.011 246.236C219.397 246.34 220.772 245.932 221.876 245.09Z" fill="#FFB8B8"/>
<path d="M191.55 327.576H184.977C184.34 327.574 183.727 327.331 183.26 326.897C182.793 326.463 182.507 325.869 182.458 325.233L175.507 229.512C175.48 229.145 175.534 228.777 175.664 228.433C175.795 228.089 175.999 227.778 176.262 227.521C176.525 227.265 176.841 227.068 177.188 226.946C177.535 226.825 177.905 226.78 178.271 226.816L219.652 230.853C220.269 230.913 220.841 231.197 221.261 231.652C221.682 232.107 221.92 232.7 221.932 233.319L222.729 275.542C222.733 275.771 222.778 275.998 222.86 276.212L238.454 316.65C238.574 316.962 238.631 317.295 238.622 317.63C238.612 317.965 238.536 318.294 238.398 318.599C238.26 318.904 238.063 319.179 237.818 319.407C237.573 319.635 237.285 319.812 236.971 319.928L230.31 322.382C229.731 322.595 229.095 322.589 228.52 322.365C227.946 322.142 227.473 321.716 227.191 321.167L208.035 283.92C207.93 283.717 207.854 283.501 207.808 283.278L204.536 267.511C204.441 267.054 204.186 266.646 203.817 266.359C203.449 266.073 202.99 265.927 202.523 265.948C202.057 265.969 201.613 266.156 201.272 266.475C200.931 266.793 200.714 267.223 200.661 267.687L194.06 325.338C193.989 325.954 193.695 326.522 193.232 326.935C192.769 327.348 192.171 327.576 191.55 327.576Z" fill="#39656B"/>
<path d="M194.824 154.667C202.437 154.667 208.608 148.496 208.608 140.883C208.608 133.27 202.437 127.099 194.824 127.099C187.211 127.099 181.04 133.27 181.04 140.883C181.04 148.496 187.211 154.667 194.824 154.667Z" fill="#FFB8B8"/>
<path d="M178.13 230.064C179.894 231.282 199.774 244.382 222.434 233.962C222.14 231.432 219.313 206.025 221.783 187.295C222.954 178.409 219.416 170.176 212.074 164.708C208.087 161.753 203.384 159.914 198.45 159.381C193.515 158.848 188.528 159.641 184.002 161.677H184.002C183.63 161.844 183.255 162.017 182.878 162.197L178.13 230.064Z" fill="#8CD88D"/>
<path d="M222.649 233.754C222.299 233.754 221.954 233.681 221.634 233.54C221.313 233.399 221.026 233.193 220.79 232.934L217.775 229.645C217.482 229.323 217.276 228.931 217.178 228.507C217.08 228.083 217.093 227.641 217.215 227.223L224.121 203.85L213.613 181.784C213.153 180.814 213.04 179.715 213.294 178.672C213.518 177.756 214.014 176.93 214.717 176.302C215.42 175.673 216.297 175.273 217.233 175.154C218.168 175.034 219.117 175.201 219.956 175.632C220.794 176.063 221.483 176.738 221.93 177.569L236.134 200.617C236.686 201.512 237.011 202.529 237.078 203.579C237.146 204.629 236.954 205.68 236.521 206.639L224.954 232.267C224.783 232.648 224.519 232.981 224.187 233.235C223.855 233.489 223.465 233.656 223.052 233.721C222.919 233.743 222.784 233.754 222.649 233.754Z" fill="#8CD88D"/>
<path opacity="0.2" d="M188.331 230.765H182.824L192.437 185.528L192.992 185.601L190.853 228.366C190.821 229.013 190.542 229.623 190.072 230.07C189.603 230.516 188.979 230.765 188.331 230.765Z" fill="#424940"/>
<path d="M183.236 242.011C183.778 241.389 184.177 240.656 184.404 239.863C184.632 239.07 184.683 238.236 184.554 237.422C184.425 236.607 184.119 235.83 183.657 235.146C183.195 234.463 182.589 233.888 181.881 233.464L185.983 213.833L176.293 217.67L173.884 235.724C173.25 236.96 173.092 238.385 173.439 239.73C173.786 241.075 174.614 242.246 175.767 243.021C176.92 243.796 178.317 244.122 179.693 243.936C181.07 243.749 182.33 243.065 183.236 242.011Z" fill="#FFB8B8"/>
<path d="M182.681 230.822C182.585 230.821 182.49 230.816 182.396 230.806L176.523 230.153C175.888 230.08 175.304 229.771 174.888 229.286C174.472 228.801 174.254 228.177 174.278 227.539L176.708 168.732C176.784 166.888 177.53 165.135 178.806 163.8C180.081 162.466 181.799 161.642 183.639 161.482C185.478 161.323 187.312 161.839 188.798 162.935C190.284 164.03 191.32 165.629 191.712 167.433L193.278 174.633L193.27 174.684L185.172 228.67C185.084 229.268 184.784 229.814 184.327 230.209C183.869 230.605 183.285 230.822 182.681 230.822Z" fill="#8CD88D"/>
<path d="M206.18 153.036C204.751 153.281 203.575 151.291 203.397 149.892C203.219 148.492 203.729 147.152 203.785 145.762C203.84 144.372 203.185 142.682 201.741 142.27C200.227 141.837 198.823 143.052 197.274 142.906C195.114 142.702 194.03 140.175 193.768 138.131C193.507 136.086 193.301 133.665 191.431 132.499C189.567 131.337 187.26 132.183 185.118 132.219C181.497 132.28 177.811 129.519 176.965 126.111C177.404 126.238 177.873 126.214 178.297 126.045C178.722 125.875 179.077 125.568 179.308 125.173C179.489 124.752 179.526 124.283 179.413 123.838C179.3 123.394 179.043 122.999 178.682 122.716L182.787 124.726C182.226 123.584 183.073 122.284 184.239 121.851C185.405 121.419 186.761 121.613 188.048 121.813C194.474 122.812 201.918 122.32 206.18 127.219C209.133 130.613 211.563 137.071 211.231 141.25C210.9 145.429 206.18 153.036 206.18 153.036Z" fill="#72796F"/>
</svg>
