<svg width="157" height="157" viewBox="0 0 157 157" fill="none" xmlns="http://www.w3.org/2000/svg">
<g style="mix-blend-mode:luminosity" opacity="0.6">
<path d="M13.9451 100.571C13.9451 100.571 22.3383 122.711 46.0139 130.988C69.6895 139.265 95.7829 131.12 117.094 125.082C138.405 119.044 150.331 101.441 146.594 82.6292C142.858 63.8175 125.139 64.2508 109.505 46.9149C93.8706 29.579 92.3383 22.5893 69.768 16.5668C47.1977 10.5443 21.2613 28.4957 13.6531 55.3866C6.04483 82.2776 13.9451 100.571 13.9451 100.571Z" fill="#92E3A9"/>
<path opacity="0.7" d="M13.9451 100.571C13.9451 100.571 22.3383 122.711 46.0139 130.988C69.6895 139.265 95.7829 131.12 117.094 125.082C138.405 119.044 150.331 101.441 146.594 82.6292C142.858 63.8175 125.139 64.2508 109.505 46.9149C93.8706 29.579 92.3383 22.5893 69.768 16.5668C47.1977 10.5443 21.2613 28.4957 13.6531 55.3866C6.04483 82.2776 13.9451 100.571 13.9451 100.571Z" fill="white"/>
<path d="M63.5729 26.26C62.7834 27.1152 62.2284 28.1601 61.9621 29.2932C61.3794 28.5063 60.5289 27.9598 59.571 27.7568C58.6131 27.5538 57.6141 27.7082 56.7623 28.1911C56.6048 26.3112 55.7757 24.5508 54.4266 23.2322C53.0775 21.9136 51.2986 21.1249 49.4156 21.0105C47.5325 20.8962 45.6713 21.4637 44.1725 22.6094C42.6737 23.755 41.6376 25.402 41.2538 27.2491C40.3321 26.3416 39.1007 25.8172 37.8077 25.7816C36.5147 25.7461 35.2563 26.202 34.2861 27.0576" stroke="#263238" stroke-miterlimit="10"/>
<path d="M84.9837 17.9731C84.4507 17.8909 83.9122 17.8499 83.3729 17.8506C81.0059 17.8498 78.71 18.6594 76.8671 20.1447C75.0242 21.63 73.7453 23.7015 73.2432 26.0146C72.1792 24.9654 70.7962 24.3002 69.3123 24.124C67.8284 23.9477 66.3281 24.2704 65.0479 25.0412" stroke="#263238" stroke-miterlimit="10"/>
<path d="M90.8059 20.9973C90.0744 20.246 89.2326 19.6107 88.3096 19.1133" stroke="#263238" stroke-miterlimit="10"/>
<path d="M87.0752 31.086H106.229C105.987 30.6797 105.661 30.3294 105.273 30.058C104.886 29.7866 104.445 29.6003 103.98 29.5113C103.516 29.4223 103.037 29.4327 102.577 29.5417C102.116 29.6508 101.684 29.856 101.309 30.144C101.055 29.41 100.643 28.7408 100.102 28.1837C99.5613 27.6266 98.9044 27.1953 98.1782 26.9202C97.452 26.6452 96.6742 26.5332 95.8998 26.5922C95.1255 26.6512 94.3737 26.8797 93.6975 27.2615C93.525 25.384 92.8408 23.5898 91.7193 22.0742" stroke="#263238" stroke-miterlimit="10"/>
<path d="M33.485 27.9453C32.8747 28.8052 32.5456 29.833 32.543 30.8875C32.543 30.9503 32.543 31.0131 32.543 31.0759H83.2854" stroke="#263238" stroke-miterlimit="10"/>
<path d="M101.422 34.4897C100.816 33.9726 100.085 33.6217 99.3025 33.4713C98.5197 33.321 97.7113 33.3764 96.9563 33.6321C96.2013 33.8877 95.5255 34.335 94.9952 34.93C94.4648 35.525 94.0978 36.2475 93.9303 37.0269C93.5519 36.6512 93.0799 36.3835 92.5633 36.2514C92.0467 36.1193 91.5042 36.1276 90.9919 36.2755C90.4796 36.4235 90.0162 36.7056 89.6495 37.0927C89.2828 37.4799 89.0262 37.958 88.9063 38.4775C88.6453 38.1295 88.2669 37.8879 87.8412 37.7979C87.4156 37.7078 86.9718 37.7752 86.5921 37.9877C86.5251 37.1482 86.1573 36.3612 85.5563 35.7714C84.9552 35.1815 84.1614 34.8285 83.3208 34.7773C82.4803 34.7261 81.6495 34.9802 80.9813 35.4927C80.3131 36.0052 79.8525 36.7418 79.6841 37.5669C79.3642 37.2527 78.9586 37.04 78.5182 36.9555C78.0778 36.8709 77.6223 36.9183 77.2087 37.0917C76.7952 37.2651 76.442 37.5568 76.1936 37.9301C75.9453 38.3035 75.8127 38.7419 75.8125 39.1903C75.8125 39.2186 75.8125 39.2437 75.8125 39.272H108.604C108.494 39.0916 108.348 38.9363 108.174 38.8162C108.001 38.6961 107.804 38.614 107.596 38.5752C107.389 38.5364 107.176 38.5418 106.971 38.5909C106.765 38.6401 106.573 38.732 106.406 38.8606C106.293 38.5342 106.11 38.2366 105.869 37.9888C105.628 37.7411 105.336 37.5493 105.013 37.427C104.69 37.3048 104.344 37.2551 104 37.2814C103.656 37.3078 103.321 37.4095 103.021 37.5795C102.991 37.2356 102.921 36.8963 102.813 36.5684" stroke="#263238" stroke-miterlimit="10"/>
<path d="M15.3008 73.109C15.3008 73.109 58.3659 33.1431 63.2988 32.8542C68.1784 32.5685 103.214 68.7664 103.214 68.7664C103.214 68.7664 127.336 47.8038 129.92 47.8038C132.504 47.8038 135.962 52.3819 135.962 52.3819" stroke="#263238" stroke-linecap="round" stroke-linejoin="round"/>
<path d="M92.5887 62.1476L90.4189 60.0752" stroke="#263238" stroke-linecap="round" stroke-linejoin="round"/>
<path d="M67.9365 41.5957L75.3595 48.3624" stroke="#263238" stroke-linecap="round" stroke-linejoin="round"/>
<path d="M65.5938 39.4609L66.9754 40.7169" stroke="#263238" stroke-linecap="round" stroke-linejoin="round"/>
<path d="M88.0417 57.8014L73.3496 43.7656" stroke="#263238" stroke-linecap="round" stroke-linejoin="round"/>
<path d="M140.562 126.856C140.276 124.585 136.304 127.992 136.304 127.992C136.841 126.636 137.129 125.193 137.155 123.735C137.155 121.464 134.329 124.3 134.329 124.3C134.329 124.3 136.316 120.61 136.034 116.638C135.751 112.666 131.49 117.206 131.49 117.206C131.49 117.206 133.195 111.24 133.478 109.542C133.76 107.843 125.531 111.529 125.531 111.529C125.531 111.529 126.099 108.973 126.381 106.421C126.529 105.114 125.125 105.658 123.706 106.502C123.392 105.366 122.554 105.287 121.621 105.642C121.681 105.359 121.747 105.052 121.819 104.722C122.133 103.193 119.954 104.917 118.142 106.546C117.923 104.56 117.025 102.711 115.599 101.312C114.227 99.9396 112.748 101.469 111.517 103.617L109.479 104.245C109.454 103.849 109.413 103.441 109.353 103.02C108.986 100.451 106.841 103.221 105.369 105.501L103.799 105.984C103.547 104.376 102.932 102.031 101.418 100.181C98.8657 97.0602 92.9028 105.859 92.9028 105.859C92.9028 105.859 89.2133 99.8925 87.794 103.033C86.3748 106.173 88.3624 112.685 88.3624 112.685C88.3624 112.685 87.5114 110.412 86.3779 109.859C85.2444 109.306 82.1201 111.843 82.1201 111.843C82.1201 111.843 83.8219 107.871 82.1201 106.452C80.5783 105.168 78.5781 109.683 78.2076 110.562C78.4682 109.897 79.4636 107.014 78.7132 103.045C77.8622 98.5046 74.4553 104.464 74.4553 104.464C74.4553 104.464 75.0237 98.7872 71.9025 97.9363C68.7813 97.0854 73.3218 97.9363 70.1975 103.613C67.0732 109.291 68.213 99.6413 63.6694 100.207C59.1258 100.772 60.2657 117.806 60.2657 117.806L42.3582 107.564C42.3582 107.564 41.5073 105.859 38.6248 105.344C35.7423 104.829 37.5352 109.272 37.5352 109.272C37.5352 109.272 33.56 105.582 31.8581 105.582C31.4153 105.582 30.0557 107.551 28.2848 110.465C28.156 110.167 28.0241 109.862 27.886 109.554C26.809 107.19 25.8984 112.478 25.5184 115.181L25.2044 115.724C24.9752 114.39 24.3064 112.098 22.4915 112.098C20.2935 112.098 21.4584 119.671 21.8258 121.775V121.8C21.5432 120.604 20.7299 117.718 19.3829 117.489C17.681 117.206 19.0971 123.735 19.0971 123.735C19.0971 123.735 17.9636 122.884 17.1126 122.884C16.4846 122.884 17.3544 126.843 17.8819 129.069C16.0921 132.398 14.877 134.706 14.877 134.706L26.181 128.561H85.5866L82.7135 132.536H139.416C139.416 132.536 140.844 129.132 140.562 126.856Z" fill="black"/>
<path d="M71.9531 132.47H74.0161L75.2721 86.9398L77.916 78.9768L75.1308 84.2237L75.5421 79.0992L80.0009 70.0246L75.7054 75.6766L75.36 62.0898L74.776 70.4517L72.669 69.1957L74.5154 71.9903L74.013 81.8813L72.3456 79.2468L73.7806 83.9348L71.9531 132.47Z" fill="#263238"/>
<path d="M79.8251 135.487C79.0904 132.573 77.8878 128.956 76.211 127.606C73.2343 125.207 68.3924 128.978 65.7862 127.264C63.18 125.549 68.7629 108.76 59.8202 107.733C50.8775 106.706 47.5303 123.838 43.4326 125.549C39.3349 127.26 37.8465 121.097 32.2604 120.754C27.3777 120.44 17.9389 132.46 15.6436 135.487H79.8251Z" fill="#92E3A9"/>
<path opacity="0.46" d="M79.8251 135.487C79.0904 132.573 77.8878 128.956 76.211 127.606C73.2343 125.207 68.3924 128.978 65.7862 127.264C63.18 125.549 68.7629 108.76 59.8202 107.733C50.8775 106.706 47.5303 123.838 43.4326 125.549C39.3349 127.26 37.8465 121.097 32.2604 120.754C27.3777 120.44 17.9389 132.46 15.6436 135.487H79.8251Z" fill="black"/>
<path d="M59.9736 132.47H62.0366L63.2926 86.9398L65.9396 78.9611L63.1545 84.208L63.5658 79.0835L68.0246 70.0089L63.7416 75.6735L63.3711 62.0898L62.7996 70.4517L60.6927 69.1957L62.539 71.9903L62.0366 81.8813L60.3693 79.2468L61.8043 83.9348L59.9736 132.47Z" fill="#C7CACB"/>
<path d="M32.2129 132.47H34.2759L35.5319 86.9398L38.1758 78.9768L35.3874 84.2237L35.8019 79.0992L40.267 70.0215L35.9715 75.6735L35.6041 62.0898L35.0201 70.4517L32.9131 69.1957L34.7594 71.9903L34.257 81.8813L32.5866 79.2468L34.0247 83.9348L32.2129 132.47Z" fill="#A8ADAF"/>
<path d="M91.3984 132.47H93.4614L94.7174 97.4744L97.3739 91.3733L94.5855 95.4051L94.9969 91.4675L99.4557 84.4653L95.1602 88.8299L94.7896 78.3926L94.1993 84.8202L92.0955 83.8593L93.9418 86.0039L93.4363 93.6059L91.769 91.5806L93.2039 95.1822L91.3984 132.47Z" fill="#C7CACB"/>
<path d="M67.3027 132.47H69.3657L70.6217 97.4744L73.275 91.3733L70.4898 95.4051L70.9012 91.4675L75.36 84.4653L71.0645 88.8299L70.6939 78.3926L70.1099 84.8202L68.003 83.8593L69.8524 86.0039L69.3469 93.6059L67.6795 91.5806L69.1145 95.1822L67.3027 132.47Z" fill="#C7CACB"/>
<path d="M83.0811 132.47H85.1409L86.3969 97.4744L89.0533 91.3733L86.265 95.4051L86.6795 91.4675L91.1352 84.4653L86.8396 88.8299L86.4691 78.3926L85.8882 84.8202L83.7813 83.8593L85.6276 86.0039L85.1252 93.6059L83.4547 91.5806L84.8928 95.1822L83.0811 132.47Z" fill="#C7CACB"/>
<path d="M128.762 132.471H130.825L132.081 86.9406L134.725 78.9775L131.939 84.2245L132.351 79.1L136.81 70.0254L132.514 75.6774L132.143 62.0938L131.566 70.4524L129.459 69.1964L131.305 71.991L130.803 81.882L129.135 79.2476L130.57 83.9356L128.762 132.471Z" fill="#263238"/>
<path d="M116.28 132.47H118.34L119.596 86.9398L122.243 78.9768L119.455 84.2237L119.869 79.0992L124.344 70.0215L120.048 75.6735L119.678 62.0898L119.097 70.4517L116.99 69.1957L118.836 71.9903L118.334 81.8813L116.663 79.2468L118.101 83.9348L116.28 132.47Z" fill="#8A9094"/>
<path d="M94.8809 132.47H96.9407L98.1967 86.9398L100.841 78.9768L98.0523 84.2237L98.4667 79.0992L102.935 70.0215L98.6394 75.6735L98.2815 62.0898L97.7006 70.4517L95.5936 69.1957L97.44 71.9903L96.9376 81.8813L95.2671 79.2468L96.7052 83.9348L94.8809 132.47Z" fill="#263238"/>
<path d="M125.955 135.487C125.327 132.573 124.278 128.956 122.831 127.606C120.253 125.207 116.061 128.978 113.806 127.264C111.552 125.549 116.384 108.76 108.65 107.733C100.917 106.706 98.0152 123.838 94.4702 125.549C90.9251 127.26 89.6346 121.097 84.8021 120.754C80.5757 120.44 72.4085 132.46 70.4209 135.487H125.955Z" fill="#92E3A9"/>
<path opacity="0.25" d="M125.955 135.487C125.327 132.573 124.278 128.956 122.831 127.606C120.253 125.207 116.061 128.978 113.806 127.264C111.552 125.549 116.384 108.76 108.65 107.733C100.917 106.706 98.0152 123.838 94.4702 125.549C90.9251 127.26 89.6346 121.097 84.8021 120.754C80.5757 120.44 72.4085 132.46 70.4209 135.487H125.955Z" fill="black"/>
<path d="M90.5827 63.5664C90.5827 63.5664 86.1207 63.5664 84.8208 70.8167C83.5208 78.0669 86.8649 79.9227 82.7735 83.6467C78.6821 87.3708 78.1263 89.9707 80.1704 91.6443C82.2146 93.3179 83.3324 95.1768 80.7294 97.9651C78.1263 100.753 77.7526 104.845 87.0502 107.448C96.3477 110.051 103.413 103.73 103.786 99.4535C104.16 95.1768 100.995 92.3853 100.81 88.8528C100.624 85.3203 107.134 81.9731 106.389 77.1406C105.645 72.3082 98.9508 74.1639 97.0919 70.4461C95.233 66.7284 95.0446 63.5664 90.5827 63.5664Z" fill="#92E3A9"/>
<path opacity="0.46" d="M90.5827 63.5664C90.5827 63.5664 86.1207 63.5664 84.8208 70.8167C83.5208 78.0669 86.8649 79.9227 82.7735 83.6467C78.6821 87.3708 78.1263 89.9707 80.1704 91.6443C82.2146 93.3179 83.3324 95.1768 80.7294 97.9651C78.1263 100.753 77.7526 104.845 87.0502 107.448C96.3477 110.051 103.413 103.73 103.786 99.4535C104.16 95.1768 100.995 92.3853 100.81 88.8528C100.624 85.3203 107.134 81.9731 106.389 77.1406C105.645 72.3082 98.9508 74.1639 97.0919 70.4461C95.233 66.7284 95.0446 63.5664 90.5827 63.5664Z" fill="black"/>
<path d="M87.292 134.037H88.9217L91.2264 88.6705L93.3177 82.3905L91.1197 86.5384L91.4337 82.4878L94.9567 75.3098L91.5624 79.7906L91.2672 69.0518L90.8088 75.6458L89.1415 74.6598L90.6016 76.8578L90.2028 84.6764L88.884 82.5946L90.0207 86.2998L87.292 134.037Z" fill="#92989B"/>
<path d="M62.6621 135.488C63.1394 132.8 63.9181 129.459 65.014 128.215C66.9545 126.002 70.1039 129.471 71.8026 127.901C73.5014 126.331 69.8621 110.826 75.6806 109.878C81.499 108.93 83.6813 124.74 86.3565 126.322C89.0318 127.905 89.9927 122.209 93.6288 121.895C96.8096 121.618 102.951 132.699 104.446 135.491L62.6621 135.488Z" fill="#92E3A9"/>
<path opacity="0.46" d="M62.6621 135.488C63.1394 132.8 63.9181 129.459 65.014 128.215C66.9545 126.002 70.1039 129.471 71.8026 127.901C73.5014 126.331 69.8621 110.826 75.6806 109.878C81.499 108.93 83.6813 124.74 86.3565 126.322C89.0318 127.905 89.9927 122.209 93.6288 121.895C96.8096 121.618 102.951 132.699 104.446 135.491L62.6621 135.488Z" fill="black"/>
<path d="M84.8304 135.487C84.4002 133.635 83.6937 131.33 82.714 130.463C80.9682 128.937 78.1327 131.336 76.6067 130.247C75.0807 129.157 78.3494 118.465 73.115 117.812C67.8806 117.159 65.915 128.064 63.516 129.154C61.1171 130.244 60.2442 126.328 56.9723 126.102C54.1117 125.91 48.5822 133.556 47.2383 135.481L84.8304 135.487Z" fill="#92E3A9"/>
<path d="M24.9627 109.002C24.9627 109.002 20.6798 109.454 14.6007 103.595C8.52168 97.7358 20.4631 76.9961 25.1951 72.487C29.9271 67.978 39.6391 96.8315 36.0155 102.242C32.392 107.652 28.5737 108.779 24.9627 109.002Z" fill="#92E3A9"/>
<path opacity="0.46" d="M24.9627 109.002C24.9627 109.002 20.6798 109.454 14.6007 103.595C8.52168 97.7358 20.4631 76.9961 25.1951 72.487C29.9271 67.978 39.6391 96.8315 36.0155 102.242C32.392 107.652 28.5737 108.779 24.9627 109.002Z" fill="black"/>
<path d="M23.1577 132.671L23.8359 102.468L20.9031 99.3118L24.0588 101.114V95.704L20.002 90.972L23.8359 93.9016L23.3837 90.0708L24.511 91.8732L25.1861 81.0527L25.6383 97.5063L33.0769 93.4494L25.6383 99.7608V102.69V133.572" fill="#263238"/>
<path d="M129.154 83.7845C129.154 83.7845 124.871 84.2336 118.792 78.3743C112.713 72.5151 124.657 51.7754 129.367 47.2663C134.077 42.7573 143.811 71.6108 140.188 77.021C136.564 82.4312 132.759 83.5585 129.154 83.7845Z" fill="#92E3A9"/>
<path d="M125.701 131.38L128.027 77.2468L125.098 74.0911L128.253 75.8935V70.4833L124.193 65.7513L128.027 68.6809L127.575 64.8501L128.702 66.6525L129.381 55.832L129.83 72.2888L137.268 68.2287L129.83 74.5402V77.4729L128.181 132.282" fill="#A8ADAF"/>
<path d="M34.5774 134.707C34.5255 134.456 34.4234 134.218 34.2772 134.007C34.1309 133.797 33.9436 133.618 33.7265 133.482C32.885 133.024 32.885 133.482 31.8896 133.168C31.2302 132.964 31.3621 131.479 31.3087 130.97C31.1423 129.416 30.2819 128.072 28.6962 127.67C27.9074 127.462 27.0788 127.459 26.2884 127.66C25.4979 127.861 24.7716 128.26 24.1778 128.819C22.2655 130.656 22.4947 132.273 21.2701 132.339C20.0455 132.405 19.3579 130.885 17.2164 131.802C15.9007 132.367 15.2193 133.736 14.8896 134.71L34.5774 134.707Z" fill="#92E3A9"/>
<path opacity="0.5" d="M34.5774 134.707C34.5255 134.456 34.4234 134.218 34.2772 134.007C34.1309 133.797 33.9436 133.618 33.7265 133.482C32.885 133.024 32.885 133.482 31.8896 133.168C31.2302 132.964 31.3621 131.479 31.3087 130.97C31.1423 129.416 30.2819 128.072 28.6962 127.67C27.9074 127.462 27.0788 127.459 26.2884 127.66C25.4979 127.861 24.7716 128.26 24.1778 128.819C22.2655 130.656 22.4947 132.273 21.2701 132.339C20.0455 132.405 19.3579 130.885 17.2164 131.802C15.9007 132.367 15.2193 133.736 14.8896 134.71L34.5774 134.707Z" fill="white"/>
<path d="M16.8682 134.596C16.8682 134.596 17.2073 133.199 18.3502 133.073C19.4932 132.948 20.297 134.81 21.9926 133.243C23.6882 131.676 24.7025 127.695 27.3306 127.823C29.9588 127.952 29.9149 131.127 29.6166 132.439C29.3183 133.752 31.0578 133.695 31.8146 133.538C32.5713 133.381 33.4662 134.216 33.4662 134.725" stroke="#263238" stroke-width="0.903884" stroke-linecap="round" stroke-linejoin="round"/>
<path d="M19.239 134.681L18.3096 133.836" stroke="#263238" stroke-width="0.903884" stroke-linecap="round" stroke-linejoin="round"/>
<path d="M24.9121 134.725L27.4116 129.645" stroke="#263238" stroke-width="0.903884" stroke-linecap="round" stroke-linejoin="round"/>
<path d="M26.1406 130.023L26.4389 131.675L28.4297 130.573" stroke="#263238" stroke-width="0.903884" stroke-linecap="round" stroke-linejoin="round"/>
<path d="M24.5322 131.717L25.5496 133.582L27.5372 132.945" stroke="#263238" stroke-width="0.903884" stroke-linecap="round" stroke-linejoin="round"/>
<path d="M76.644 134.185C76.5862 133.908 76.473 133.645 76.3111 133.413C76.1492 133.18 75.9421 132.983 75.702 132.832C74.76 132.323 74.76 132.832 73.6704 132.493C72.9419 132.27 73.0864 130.628 73.0267 130.066C72.8446 128.345 71.8932 126.86 70.1379 126.414C69.2627 126.18 68.3423 126.172 67.4634 126.392C66.5845 126.612 65.7759 127.051 65.1139 127.67C62.9976 129.701 63.2519 131.479 61.8986 131.563C60.5452 131.648 59.7822 129.956 57.4115 130.97C55.9577 131.598 55.2135 133.108 54.8398 134.185H76.644Z" fill="#92E3A9"/>
<path opacity="0.5" d="M76.644 134.185C76.5862 133.908 76.473 133.645 76.3111 133.413C76.1492 133.18 75.9421 132.983 75.702 132.832C74.76 132.323 74.76 132.832 73.6704 132.493C72.9419 132.27 73.0864 130.628 73.0267 130.066C72.8446 128.345 71.8932 126.86 70.1379 126.414C69.2627 126.18 68.3423 126.172 67.4634 126.392C66.5845 126.612 65.7759 127.051 65.1139 127.67C62.9976 129.701 63.2519 131.479 61.8986 131.563C60.5452 131.648 59.7822 129.956 57.4115 130.97C55.9577 131.598 55.2135 133.108 54.8398 134.185H76.644Z" fill="white"/>
<path d="M59.6754 134.153L58.6455 133.217" stroke="#263238" stroke-linecap="round" stroke-linejoin="round"/>
<path d="M65.9521 134.201L68.7153 128.58" stroke="#263238" stroke-linecap="round" stroke-linejoin="round"/>
<path d="M67.3115 129L67.6381 130.827L69.8392 129.609" stroke="#263238" stroke-linecap="round" stroke-linejoin="round"/>
<path d="M65.5312 130.875L66.6554 132.938L68.8565 132.235" stroke="#263238" stroke-linecap="round" stroke-linejoin="round"/>
<path d="M41.6645 42.2832C41.6645 42.2832 35.2369 42.2832 33.3623 52.7268C31.4877 63.1705 36.3076 65.8489 30.417 71.2026C24.5264 76.5563 23.7225 80.3086 26.671 82.717C29.6194 85.1254 31.2208 87.8038 27.4717 91.823C23.7225 95.8422 23.1887 101.733 36.5777 105.482C49.9666 109.231 60.1277 100.125 60.6772 93.9676C61.2267 87.8101 56.658 83.7909 56.3911 78.7041C56.1242 73.6173 65.4971 68.7974 64.4232 61.836C63.3493 54.8746 53.7127 57.5499 51.0374 52.1962C48.3621 46.8425 48.0921 42.2832 41.6645 42.2832Z" fill="#92E3A9"/>
<path opacity="0.18" d="M41.6645 42.2832C41.6645 42.2832 35.2369 42.2832 33.3623 52.7268C31.4877 63.1705 36.3076 65.8489 30.417 71.2026C24.5264 76.5563 23.7225 80.3086 26.671 82.717C29.6194 85.1254 31.2208 87.8038 27.4717 91.823C23.7225 95.8422 23.1887 101.733 36.5777 105.482C49.9666 109.231 60.1277 100.125 60.6772 93.9676C61.2267 87.8101 56.658 83.7909 56.3911 78.7041C56.1242 73.6173 65.4971 68.7974 64.4232 61.836C63.3493 54.8746 53.7127 57.5499 51.0374 52.1962C48.3621 46.8425 48.0921 42.2832 41.6645 42.2832Z" fill="black"/>
<path d="M36.9072 143.768H39.2497L42.5686 78.437L45.583 69.3719L42.4085 75.3379L42.8795 69.5037L47.9537 59.17L43.0616 65.6258L42.6409 50.1582L41.9783 59.6818L39.5794 58.2563L41.6832 61.4371L41.1085 72.6971L39.2245 69.6984L40.8605 75.0364L36.9072 143.768Z" fill="#263238"/>
<path d="M102.565 48.4346C102.565 48.4346 96.1437 48.6576 94.6334 59.1609C93.123 69.6642 98.0309 72.1699 92.3317 77.7277C86.6327 83.2855 85.9576 87.0598 88.9845 89.3645C92.0115 91.6693 93.7102 94.2912 90.1024 98.436C86.4945 102.581 86.1679 108.484 99.6762 111.765C113.184 115.047 123.041 105.595 123.361 99.4219C123.682 93.2487 118.993 89.3928 118.548 84.3185C118.102 79.2443 127.302 74.1041 125.989 67.1961C124.677 60.2881 115.138 63.2868 112.274 58.0273C109.41 52.7678 108.986 48.2117 102.565 48.4346Z" fill="#92E3A9"/>
<g opacity="0.5">
<path d="M102.565 48.4346C102.565 48.4346 96.1437 48.6576 94.6334 59.1609C93.123 69.6642 98.0309 72.1699 92.3317 77.7277C86.6327 83.2855 85.9576 87.0598 88.9845 89.3645C92.0115 91.6693 93.7102 94.2912 90.1024 98.436C86.4945 102.581 86.1679 108.484 99.6762 111.765C113.184 115.047 123.041 105.595 123.361 99.4219C123.682 93.2487 118.993 89.3928 118.548 84.3185C118.102 79.2443 127.302 74.1041 125.989 67.1961C124.677 60.2881 115.138 63.2868 112.274 58.0273C109.41 52.7678 108.986 48.2117 102.565 48.4346Z" fill="white"/>
</g>
<path d="M100.681 137.576L103.026 137.494L104.728 84.5353L107.422 75.3602L104.458 81.4392L104.725 75.5925L109.435 65.0892L104.772 71.7084L103.811 56.2627L103.478 65.802L101.032 64.4644L103.246 67.5698L103.064 78.8456L101.061 75.9128L102.879 81.188L100.681 137.576Z" fill="#263238"/>
<path d="M142.117 135.488C141.558 133.07 140.638 130.065 139.357 128.944C137.083 126.953 133.391 130.084 131.394 128.661C129.396 127.239 133.667 113.297 126.841 112.443C120.014 111.589 117.452 125.816 114.321 127.239C111.191 128.661 110.054 123.54 105.787 123.254C102.056 123.006 94.8471 132.988 93.0918 135.5L142.117 135.488Z" fill="#92E3A9"/>
<path d="M65.0382 136.11C65.2518 134.452 65.3679 131.4 63.6974 129.735C61.3267 127.365 57.7723 131.214 56.8836 131.214C55.995 131.214 55.6967 128.847 53.0309 126.771C50.365 124.696 47.1057 127.365 45.3284 126.771C43.5512 126.178 46.8105 116.997 41.774 116.701C36.7374 116.406 34.9602 129.142 31.412 129.142C27.8638 129.142 27.264 126.771 23.7095 128.847C20.9244 130.47 19.414 134.455 18.8896 136.11H65.0382Z" fill="#92E3A9"/>
<path opacity="0.25" d="M65.0382 136.11C65.2518 134.452 65.3679 131.4 63.6974 129.735C61.3267 127.365 57.7723 131.214 56.8836 131.214C55.995 131.214 55.6967 128.847 53.0309 126.771C50.365 124.696 47.1057 127.365 45.3284 126.771C43.5512 126.178 46.8105 116.997 41.774 116.701C36.7374 116.406 34.9602 129.142 31.412 129.142C27.8638 129.142 27.264 126.771 23.7095 128.847C20.9244 130.47 19.414 134.455 18.8896 136.11H65.0382Z" fill="black"/>
<path d="M28.4513 135.71L25.2705 130.545" stroke="#263238" stroke-linecap="round" stroke-linejoin="round"/>
<path d="M39.8438 135.312L41.4326 120.344" stroke="#263238" stroke-linecap="round" stroke-linejoin="round"/>
<path d="M48.9834 135.578L50.5722 129.75" stroke="#263238" stroke-linecap="round" stroke-linejoin="round"/>
<path d="M60.2402 135.843L61.8322 131.736" stroke="#263238" stroke-linecap="round" stroke-linejoin="round"/>
<path d="M28.7151 130.678L27.1263 133.46L23.418 132.003" stroke="#263238" stroke-linecap="round" stroke-linejoin="round"/>
<path d="M39.0488 121.537L40.9014 124.85L43.4197 121.801" stroke="#263238" stroke-linecap="round" stroke-linejoin="round"/>
<path d="M37.9873 126.838L40.3737 129.752L42.757 127.896" stroke="#263238" stroke-linecap="round" stroke-linejoin="round"/>
<path d="M49.9102 132.267L53.0878 130.414" stroke="#263238" stroke-linecap="round" stroke-linejoin="round"/>
<path d="M49.6467 133.328L48.0547 129.221" stroke="#263238" stroke-linecap="round" stroke-linejoin="round"/>
<path d="M61.0378 133.722L60.2402 131.072" stroke="#263238" stroke-linecap="round" stroke-linejoin="round"/>
<path d="M60.7715 134.254L63.0229 133.328" stroke="#263238" stroke-linecap="round" stroke-linejoin="round"/>
<path d="M76.5939 62.0523C75.5761 60.0743 74.2632 58.2627 72.7003 56.6797C71.5841 55.5496 70.2266 54.6866 68.7296 54.1553C67.2326 53.624 65.6348 53.4383 64.0559 53.612C57.688 54.3342 55.9453 62.4511 54.1429 67.3871C49.8348 79.1778 44.4905 96.6645 60.5987 101.814C67.5413 104.034 77.0775 101.814 79.8689 94.3723C82.2836 87.9353 82.2459 80.8483 80.7827 74.1978C79.916 70.3073 78.6318 65.8768 76.5939 62.0523Z" fill="#92E3A9"/>
<path d="M63.4277 143.68H65.7765L67.1957 91.8263L70.207 82.7611L67.0325 88.7271L67.5097 82.8961L72.584 72.5624L67.6981 79.0214L67.2774 63.5537L66.6117 73.0742L64.2127 71.6518L66.3165 74.8326L65.7419 86.0926L63.8579 83.0939L65.4907 88.4319L63.4277 143.68Z" fill="#263238"/>
<path d="M66.665 111.247L66.709 109.715C66.3353 109.715 65.8047 109.844 65.8047 110.409C65.8047 110.877 66.2537 111.122 66.665 111.247Z" fill="#808080"/>
<path d="M66.1914 93.6852C66.1914 94.1845 66.6969 94.4263 67.1334 94.5456L67.1774 92.9756C66.8037 92.9913 66.1914 93.0792 66.1914 93.6852Z" fill="#808080"/>
<path d="M65.9023 100.743C65.9023 101.277 66.4832 101.519 66.9323 101.626L66.9762 100.056C66.6277 100.034 65.9023 100.081 65.9023 100.743Z" fill="#808080"/>
<path d="M66.7719 84.1173C66.8943 83.6212 66.3072 83.6023 65.8676 83.6526L65.7891 85.2226C66.1156 85.0279 66.64 84.6385 66.7719 84.1173Z" fill="#808080"/>
<path d="M64.8379 134.672C64.8379 135.256 65.5318 135.492 65.9903 135.583L66.0342 133.991C65.783 133.963 64.8379 133.919 64.8379 134.672Z" fill="#808080"/>
<path d="M66.1254 78.6195L66.0469 80.1581C66.4715 79.9238 66.7979 79.545 66.9669 79.0905C67.0831 78.6195 66.5681 78.5787 66.1254 78.6195Z" fill="#808080"/>
<path d="M66.5674 74.1607C66.5674 74.6851 67.1326 74.9269 67.5785 75.0368L67.5345 73.4668C67.1734 73.4762 66.5674 73.561 66.5674 74.1607Z" fill="#808080"/>
<path d="M65.9395 124.416C66.175 123.474 64.9535 123.499 64.1654 123.609L64.0586 126.463C64.6238 126.14 65.6883 125.414 65.9395 124.416Z" fill="#808080"/>
<path d="M66.1906 127.42C66.1906 127.42 64.9346 127.229 64.9346 128.098C64.9346 128.726 65.7196 128.946 66.1717 129.04L66.2125 127.552L66.1906 127.42Z" fill="#808080"/>
<path d="M65.2236 115.46C65.2236 116.211 65.8516 116.657 66.5079 116.914L66.5833 114.186C65.9396 114.267 65.2236 114.559 65.2236 115.46Z" fill="#808080"/>
<path d="M64.5712 112.742L64.5146 114.271C64.9331 114.038 65.2539 113.663 65.419 113.213C65.5383 112.726 64.9982 112.701 64.5712 112.742Z" fill="#808080"/>
<path d="M65.1674 96.7812L65.1172 98.0938C65.3968 97.8856 65.6035 97.5944 65.7075 97.2617C65.7986 96.8974 65.5034 96.7938 65.1674 96.7812Z" fill="#808080"/>
<path d="M65.4185 121.43C65.5692 120.83 64.6712 120.927 64.263 121.003L64.2002 122.667C64.3886 122.573 65.2458 122.117 65.4185 121.43Z" fill="#808080"/>
<path d="M126.523 38.3612C125.506 36.3825 124.193 34.5708 122.629 32.9887C121.513 31.858 120.155 30.9948 118.657 30.4635C117.159 29.9322 115.561 29.7467 113.982 29.9209C107.617 30.6399 105.871 38.76 104.069 43.6929C99.751 55.4868 94.4068 72.9734 110.528 78.123C117.473 80.343 127.009 78.123 129.798 70.6812C132.212 64.2411 132.175 57.1572 130.715 50.5067C129.845 46.6163 128.561 42.1857 126.523 38.3612Z" fill="#92E3A9"/>
<path opacity="0.18" d="M126.523 38.3612C125.506 36.3825 124.193 34.5708 122.629 32.9887C121.513 31.858 120.155 30.9948 118.657 30.4635C117.159 29.9322 115.561 29.7467 113.982 29.9209C107.617 30.6399 105.871 38.76 104.069 43.6929C99.751 55.4868 94.4068 72.9734 110.528 78.123C117.473 80.343 127.009 78.123 129.798 70.6812C132.212 64.2411 132.175 57.1572 130.715 50.5067C129.845 46.6163 128.561 42.1857 126.523 38.3612Z" fill="black"/>
<path d="M112.452 134.706H114.801L117.121 68.1379L120.133 59.0728L116.961 65.0387L117.435 59.2109L122.513 48.8772L117.621 55.3299L117.206 39.8779L116.54 49.3984L114.145 47.976L116.245 51.1568L115.674 62.4168L113.774 59.4181L115.407 64.7561L112.452 134.706Z" fill="#263238"/>
<path d="M115.706 74.0814C115.825 73.6135 115.467 73.4534 115.04 73.4346L114.968 75.1522C115.316 74.8778 115.573 74.5046 115.706 74.0814Z" fill="#5C5C5C"/>
<path d="M113.938 100.841L113.859 102.904C114.302 102.621 114.918 102.122 115.081 101.475C115.244 100.828 114.519 100.793 113.938 100.841Z" fill="#5C5C5C"/>
<path d="M116.058 54.849L115.954 56.9089C116.397 56.6231 117.003 56.1301 117.163 55.4864C117.323 54.8427 116.635 54.7988 116.058 54.849Z" fill="#5C5C5C"/>
<path d="M115.47 79.9787C115.502 79.8764 115.502 79.7669 115.47 79.6647C115.918 79.2348 116.243 78.6927 116.412 78.0947C116.65 77.1527 115.784 76.9235 114.898 76.936L114.726 81.0494C115.076 80.7753 115.335 80.4022 115.47 79.9787Z" fill="#5C5C5C"/>
<path d="M117.48 49.8537L117.427 47.9697C117.209 47.9924 117.008 48.0955 116.863 48.2587C116.718 48.422 116.639 48.6336 116.642 48.8521C116.642 49.3513 117.034 49.6622 117.48 49.8537Z" fill="#5C5C5C"/>
<path d="M115.153 63.905C115.337 63.7228 115.489 63.5104 115.602 63.277L115.577 63.7417C116.02 63.4716 116.729 62.9473 116.902 62.247C117.075 61.5468 116.302 61.5531 115.712 61.619L115.674 62.3883L115.649 62.3475V62.5642C115.473 62.3569 115.071 62.3287 114.707 62.3538L115.153 63.905Z" fill="#5C5C5C"/>
<path d="M116.227 59.2295C116.227 59.8575 116.804 60.1715 117.351 60.3473L117.404 59.6816L117.445 58.2969C116.942 58.3126 116.227 58.4664 116.227 59.2295Z" fill="#5C5C5C"/>
<path d="M113.438 114.217C113.693 114.091 114.848 113.476 115.081 112.55C115.282 111.739 114.073 111.871 113.511 111.972L113.438 114.217Z" fill="#5C5C5C"/>
<path d="M115.602 97.6982C115.606 97.8611 115.651 98.0204 115.733 98.1613C115.814 98.3023 115.93 98.4205 116.069 98.5051L116.126 96.8975C115.965 96.9583 115.828 97.0686 115.733 97.2125C115.639 97.3564 115.593 97.5264 115.602 97.6982Z" fill="#5C5C5C"/>
<path d="M116.645 82.1489C116.277 82.1144 115.056 82.0736 115.056 83.0721C115.056 83.5965 115.47 83.9105 115.932 84.0989C115.794 84.2569 115.723 84.4612 115.731 84.6704C115.731 85.1602 116.095 85.4679 116.522 85.6595L116.645 82.1489Z" fill="#5C5C5C"/>
<path d="M116.123 75.1589C116.137 75.3733 116.214 75.5787 116.344 75.7496C116.474 75.9205 116.652 76.0492 116.855 76.1198L116.921 74.2734C116.701 74.2939 116.497 74.3964 116.349 74.5604C116.201 74.7245 116.121 74.9381 116.123 75.1589Z" fill="#5C5C5C"/>
<path d="M116.975 65.0449L117.028 64.3604C116.237 64.5142 115.458 64.9413 115.458 66.0371C115.458 67.0513 116.29 67.6479 117.188 67.9996L117.285 64.4828L116.975 65.0449Z" fill="#5C5C5C"/>
<path d="M114.82 104.505C114.832 104.833 114.929 105.151 115.101 105.43C115.273 105.709 115.515 105.938 115.803 106.094L115.913 102.954C115.584 103.053 115.297 103.26 115.099 103.541C114.901 103.822 114.803 104.162 114.82 104.505Z" fill="#5C5C5C"/>
<path d="M115.407 117.436L115.47 115.665C114.977 115.351 114.067 115.408 113.392 115.502L113.247 119.32C114.102 118.866 114.841 118.221 115.407 117.436Z" fill="#5C5C5C"/>
<path d="M114.981 129.541C114.784 129.58 114.607 129.687 114.482 129.844C114.357 130.001 114.293 130.198 114.299 130.398C114.309 130.593 114.373 130.781 114.484 130.94C114.595 131.1 114.748 131.226 114.927 131.303L114.981 129.541Z" fill="#5C5C5C"/>
<path d="M114.428 121.54C114.428 122.033 114.798 122.341 115.228 122.532L115.294 120.648C114.864 120.718 114.428 120.944 114.428 121.54Z" fill="#5C5C5C"/>
<path d="M41.9533 71.0707C41.9533 71.0707 36.9136 72.468 34.2257 78.4685C31.5379 84.4691 35.8742 89.1853 33.7799 95.1608C31.6855 101.136 25.7477 104.144 31.0543 108.813C36.3609 113.483 43.0962 106.132 46.657 106.76C50.2178 107.388 50.4972 113.847 60.181 111.068C69.8647 108.289 66.775 99.9932 63.0635 96.2315C59.352 92.4698 62.2345 86.2651 59.7131 77.941C57.7757 71.5542 48.899 68.4111 41.9533 71.0707Z" fill="#92E3A9"/>
<path opacity="0.5" d="M41.9533 71.0707C41.9533 71.0707 36.9136 72.468 34.2257 78.4685C31.5379 84.4691 35.8742 89.1853 33.7799 95.1608C31.6855 101.136 25.7477 104.144 31.0543 108.813C36.3609 113.483 43.0962 106.132 46.657 106.76C50.2178 107.388 50.4972 113.847 60.181 111.068C69.8647 108.289 66.775 99.9932 63.0635 96.2315C59.352 92.4698 62.2345 86.2651 59.7131 77.941C57.7757 71.5542 48.899 68.4111 41.9533 71.0707Z" fill="white"/>
<path d="M45.8939 147.589L47.5393 100.049L36.207 92.1113L47.6649 98.4761L47.756 91.6057L45.2283 87.5991L48.0888 90.2179L48.8675 81.1621L49.4673 94.8651L57.5119 90.3937L49.5709 97.2138L49.3542 105.66L55.9137 103.214L49.2443 107.626L48.2427 147.485L45.8939 147.589Z" fill="#263238"/>
<path d="M48.3561 104.816C48.669 104.985 49.0307 105.04 49.3798 104.973L49.4175 103.538C48.9841 103.767 47.7281 104.502 48.3561 104.816Z" fill="#808080"/>
<path d="M46.5281 129.254L46.4873 130.435V130.689C46.8912 130.456 47.2673 130.178 47.6083 129.86C47.9537 129.505 47.2001 129.336 46.5281 129.254Z" fill="#808080"/>
<path d="M46.9707 116.415L46.9268 117.74C47.2755 117.529 47.6007 117.282 47.897 117.002C48.2267 116.673 47.5987 116.494 46.9707 116.415Z" fill="#808080"/>
<path d="M46.751 122.855C47.1648 122.62 47.5495 122.336 47.8971 122.011C48.2582 121.649 47.4763 121.48 46.8012 121.401L46.7792 122.007L46.751 122.855Z" fill="#808080"/>
<path d="M47.709 95.1422V95.7702C48.0204 95.5769 48.3108 95.3517 48.5756 95.0983C48.8896 94.7843 48.3276 94.6116 47.7247 94.5205L47.709 95.1422Z" fill="#808080"/>
<path d="M47.458 102.426C48.1075 102.054 48.7113 101.607 49.2572 101.095C49.8287 100.526 48.6072 100.256 47.5365 100.131L47.458 102.426Z" fill="#808080"/>
<path d="M48.2706 119.693C48.4772 119.8 48.704 119.862 48.9363 119.875L48.9677 118.619C48.4496 118.946 47.7776 119.448 48.2706 119.693Z" fill="#808080"/>
<path d="M48.0134 114.905C48.3417 115.072 48.6914 115.194 49.0528 115.266L49.1156 112.754C48.0417 113.479 47.0306 114.415 48.0134 114.905Z" fill="#808080"/>
<path d="M47.8123 125.101C48.1168 125.261 48.4543 125.348 48.7982 125.355L48.8422 123.597C48.1263 124.03 47.1183 124.752 47.8123 125.101Z" fill="#808080"/>
<path d="M48.7016 129.211L48.7362 127.805C48.2589 128.068 47.1662 128.747 47.7471 129.039C48.0391 129.196 48.3732 129.256 48.7016 129.211Z" fill="#808080"/>
<path d="M47.1877 110.214L47.1406 111.602C47.5215 111.379 47.8755 111.114 48.1957 110.81C48.5411 110.453 47.8408 110.28 47.1877 110.214Z" fill="#808080"/>
<path d="M76.3618 143.768C76.3049 143.49 76.192 143.227 76.03 142.994C75.8681 142.762 75.6604 142.564 75.4198 142.415C74.4778 141.906 74.4778 142.415 73.3882 142.075C72.6597 141.852 72.8042 140.191 72.7445 139.645C72.5624 137.927 71.611 136.442 69.8557 135.996C68.9807 135.76 68.0597 135.751 67.1804 135.971C66.3011 136.191 65.4926 136.632 64.8317 137.252C62.7153 139.284 62.9697 141.061 61.6163 141.143C60.263 141.224 59.5 139.535 57.1293 140.552C55.6755 141.18 54.9313 142.691 54.5576 143.768H76.3618Z" fill="#92E3A9"/>
<path opacity="0.5" d="M76.3618 143.768C76.3049 143.49 76.192 143.227 76.03 142.994C75.8681 142.762 75.6604 142.564 75.4198 142.415C74.4778 141.906 74.4778 142.415 73.3882 142.075C72.6597 141.852 72.8042 140.191 72.7445 139.645C72.5624 137.927 71.611 136.442 69.8557 135.996C68.9807 135.76 68.0597 135.751 67.1804 135.971C66.3011 136.191 65.4926 136.632 64.8317 137.252C62.7153 139.284 62.9697 141.061 61.6163 141.143C60.263 141.224 59.5 139.535 57.1293 140.552C55.6755 141.18 54.9313 142.691 54.5576 143.768H76.3618Z" fill="white"/>
<path d="M59.3932 143.737L58.3633 142.801" stroke="#263238" stroke-linecap="round" stroke-linejoin="round"/>
<path d="M65.6699 143.783L68.4363 138.162" stroke="#263238" stroke-linecap="round" stroke-linejoin="round"/>
<path d="M67.0293 138.584L67.3559 140.411L69.5601 139.193" stroke="#263238" stroke-linecap="round" stroke-linejoin="round"/>
<path d="M65.249 140.459L66.3731 142.519L68.5743 141.815" stroke="#263238" stroke-linecap="round" stroke-linejoin="round"/>
<path d="M58.7178 147.771C58.4823 146.848 57.9265 145.476 56.6297 144.769C54.5636 143.642 54.5636 144.769 52.1238 144.019C50.5067 143.519 50.827 139.877 50.6951 138.63C50.2901 134.815 48.1831 131.518 44.2832 130.535C40.3394 129.537 36.1192 130.473 33.1614 133.318C28.4702 137.823 29.0322 141.764 26.0273 141.953C23.0223 142.141 21.3518 138.385 16.086 140.637C12.8738 142.022 11.1939 145.381 10.3838 147.771H58.7178Z" fill="#92E3A9"/>
<path d="M21.0877 147.702L18.8018 145.627" stroke="#263238" stroke-linecap="round" stroke-linejoin="round"/>
<path d="M35.0107 147.81L41.1432 135.338" stroke="#263238" stroke-linecap="round" stroke-linejoin="round"/>
<path d="M51.0156 147.495L52.9875 146.248" stroke="#263238" stroke-linecap="round" stroke-linejoin="round"/>
<path d="M38.0254 136.273L38.7539 140.327L43.6366 137.624" stroke="#263238" stroke-linecap="round" stroke-linejoin="round"/>
<path d="M34.0752 140.43L36.5715 145.002L41.4542 143.444" stroke="#263238" stroke-linecap="round" stroke-linejoin="round"/>
<path d="M20.9848 145.105L20.5672 147.391L18.2812 146.977" stroke="#263238" stroke-linecap="round" stroke-linejoin="round"/>
<path d="M51.637 146.977L51.3262 145.834" stroke="#263238" stroke-linecap="round" stroke-linejoin="round"/>
<path d="M38.0098 136.465C38.1954 136.465 38.3458 136.315 38.3458 136.129C38.3458 135.943 38.1954 135.793 38.0098 135.793C37.8243 135.793 37.6738 135.943 37.6738 136.129C37.6738 136.315 37.8243 136.465 38.0098 136.465Z" fill="#263238"/>
<path d="M41.4759 135.334C41.4803 135.401 41.4645 135.467 41.4307 135.525C41.3968 135.583 41.3464 135.63 41.2859 135.659C41.2254 135.688 41.1576 135.698 41.0912 135.688C41.0248 135.678 40.963 135.649 40.9135 135.603C40.8641 135.558 40.8294 135.499 40.8138 135.433C40.7983 135.368 40.8026 135.3 40.8263 135.237C40.85 135.174 40.8919 135.12 40.9467 135.081C41.0015 135.043 41.0666 135.021 41.1337 135.02C41.2204 135.017 41.3047 135.048 41.3686 135.107C41.4326 135.166 41.4711 135.247 41.4759 135.334Z" fill="#263238"/>
<path d="M43.9375 137.815C44.1231 137.815 44.2735 137.664 44.2735 137.479C44.2735 137.293 44.1231 137.143 43.9375 137.143C43.752 137.143 43.6016 137.293 43.6016 137.479C43.6016 137.664 43.752 137.815 43.9375 137.815Z" fill="#263238"/>
<path d="M41.9717 143.386C41.9724 143.452 41.9531 143.518 41.9164 143.573C41.8798 143.629 41.8273 143.673 41.7658 143.699C41.7043 143.724 41.6365 143.731 41.571 143.718C41.5055 143.706 41.4454 143.673 41.3982 143.626C41.351 143.579 41.319 143.519 41.3061 143.453C41.2932 143.388 41.3002 143.32 41.326 143.259C41.3518 143.197 41.3953 143.145 41.4511 143.108C41.5068 143.071 41.5722 143.052 41.6389 143.053C41.7269 143.054 41.8111 143.089 41.8734 143.151C41.9356 143.213 41.9709 143.298 41.9717 143.386Z" fill="#263238"/>
<path d="M34.044 140.707C34.2295 140.707 34.38 140.557 34.38 140.371C34.38 140.186 34.2295 140.035 34.044 140.035C33.8584 140.035 33.708 140.186 33.708 140.371C33.708 140.557 33.8584 140.707 34.044 140.707Z" fill="#263238"/>
<path d="M51.3262 146.17C51.5118 146.17 51.6622 146.02 51.6622 145.834C51.6622 145.648 51.5118 145.498 51.3262 145.498C51.1407 145.498 50.9902 145.648 50.9902 145.834C50.9902 146.02 51.1407 146.17 51.3262 146.17Z" fill="#263238"/>
<path d="M53.3077 146.177C53.3083 146.243 53.2891 146.308 53.2526 146.364C53.2161 146.42 53.1638 146.463 53.1025 146.489C53.0411 146.515 52.9735 146.522 52.9081 146.51C52.8427 146.497 52.7826 146.465 52.7353 146.418C52.688 146.372 52.6557 146.312 52.6424 146.246C52.6292 146.181 52.6357 146.113 52.661 146.052C52.6863 145.99 52.7294 145.938 52.7847 145.901C52.84 145.864 52.9051 145.844 52.9717 145.844C53.0603 145.844 53.1453 145.879 53.2082 145.941C53.2711 146.003 53.3069 146.088 53.3077 146.177Z" fill="#263238"/>
<path d="M20.9844 145.441C21.17 145.441 21.3204 145.291 21.3204 145.106C21.3204 144.92 21.17 144.77 20.9844 144.77C20.7989 144.77 20.6484 144.92 20.6484 145.106C20.6484 145.291 20.7989 145.441 20.9844 145.441Z" fill="#263238"/>
<path d="M19.0284 145.451C19.0284 145.518 19.0087 145.583 18.9718 145.638C18.9349 145.693 18.8824 145.736 18.821 145.762C18.7596 145.787 18.6921 145.794 18.6269 145.781C18.5617 145.768 18.5018 145.736 18.4549 145.689C18.4079 145.642 18.3759 145.582 18.3629 145.517C18.3499 145.452 18.3566 145.384 18.382 145.323C18.4075 145.261 18.4505 145.209 18.5058 145.172C18.561 145.135 18.626 145.115 18.6924 145.115C18.7815 145.115 18.867 145.151 18.93 145.214C18.993 145.277 19.0284 145.362 19.0284 145.451Z" fill="#263238"/>
<path d="M18.1329 147.295C18.3184 147.295 18.4688 147.145 18.4688 146.959C18.4688 146.773 18.3184 146.623 18.1329 146.623C17.9473 146.623 17.7969 146.773 17.7969 146.959C17.7969 147.145 17.9473 147.295 18.1329 147.295Z" fill="#263238"/>
<path d="M87.7785 134.492C87.7785 134.492 73.0205 135.349 74.5151 136.203C76.0098 137.058 87.992 138.128 86.0672 140.285C84.1424 142.443 60.3945 148.198 60.3945 148.198" stroke="#263238" stroke-linecap="round" stroke-linejoin="round"/>
<path d="M95.9075 134.492C95.9075 134.492 90.3435 135.349 91.1975 135.99C92.0516 136.631 130.762 137.488 128.419 148.613" stroke="#263238" stroke-linecap="round" stroke-linejoin="round"/>
<path d="M121.995 109.225C121.995 109.225 116.905 109.761 109.677 102.8C102.448 95.8387 116.638 71.2023 122.262 65.8486C127.885 60.4949 139.416 94.7648 135.114 101.192C130.812 107.62 126.278 108.958 121.995 109.225Z" fill="#92E3A9"/>
<path d="M119.851 137.34L120.654 101.46L117.175 97.7136L120.924 99.8551V93.4275L116.104 87.8037L120.654 91.286L120.121 86.733L121.458 88.8745L122.262 76.0225L122.796 95.569L131.635 90.7491L122.796 98.2474V101.73V138.411" fill="#263238"/>
<path d="M121.813 121.832C122.039 121.266 120.598 121.204 120.214 121.182L120.177 122.896C120.679 122.695 121.624 122.293 121.813 121.832Z" fill="#808080"/>
<path d="M122.796 107.334C122.064 107.516 120.567 107.962 121.003 108.389C121.348 108.731 122.184 108.869 122.796 108.923V107.334Z" fill="#808080"/>
<path d="M121.919 112.167C122.149 111.596 120.431 111.596 120.431 111.596V111.624L120.396 113.131C120.802 112.987 121.74 112.613 121.919 112.167Z" fill="#808080"/>
<path d="M121.807 104.728C121.976 104.301 121.069 104.191 120.595 104.163L120.563 105.586C121.019 105.4 121.662 105.086 121.807 104.728Z" fill="#808080"/>
<path d="M120.12 129.639L120.007 130.433L119.985 131.419C120.378 131.287 121.596 130.835 121.813 130.289C122.073 129.639 120.12 129.639 120.12 129.639Z" fill="#808080"/>
<path d="M120.771 117.521C121.16 117.91 122.099 118.064 122.796 118.13V116.324C121.957 116.535 120.278 117.028 120.771 117.521Z" fill="#808080"/>
<path d="M120.89 100.95C121.254 101.315 122.178 101.447 122.796 101.494V99.8672C122.121 100.027 120.429 100.479 120.89 100.95Z" fill="#808080"/>
<path d="M122.664 90.7461C121.913 90.9659 120.993 91.3176 121.348 91.6881C121.615 91.955 122.177 92.0963 122.705 92.1748L122.664 90.7461Z" fill="#808080"/>
<path d="M122.796 124.793C121.958 125.003 120.284 125.496 120.771 125.989C121.16 126.379 122.099 126.536 122.796 126.598V124.793Z" fill="#808080"/>
<path d="M120.925 94.8877V96.3541C121.38 96.1782 122.109 95.8423 122.262 95.456C122.46 94.9882 121.333 94.9034 120.925 94.8877Z" fill="#808080"/>
<path d="M139.416 137.733C139.648 135.613 137.924 133.337 135.742 133.227C133.782 133.133 131.628 134.448 129.996 133.362C128.661 132.473 128.633 130.577 128.482 128.966C128.331 127.355 127.892 125.76 126.849 124.57C125.807 123.38 124.055 122.686 122.56 123.232C119.549 124.341 119.363 129.28 116.28 130.191C114.151 130.819 111.931 129.051 109.746 129.443C107.07 129.921 105.861 132.882 103.808 134.329C103.594 134.48 102.703 135.127 101.679 135.874C100.822 136.502 99.8735 137.196 99.167 137.733H139.416Z" fill="#92E3A9"/>
<path opacity="0.5" d="M139.416 137.733C139.648 135.613 137.924 133.337 135.742 133.227C133.782 133.133 131.628 134.448 129.996 133.362C128.661 132.473 128.633 130.577 128.482 128.966C128.331 127.355 127.892 125.76 126.849 124.57C125.807 123.38 124.055 122.686 122.56 123.232C119.549 124.341 119.363 129.28 116.28 130.191C114.151 130.819 111.931 129.051 109.746 129.443C107.07 129.921 105.861 132.882 103.808 134.329C103.594 134.48 102.703 135.127 101.679 135.874C100.822 136.502 99.8735 137.196 99.167 137.733H139.416Z" fill="white"/>
<path d="M114.443 137.557L112.754 132.621" stroke="#263238" stroke-linecap="round" stroke-linejoin="round"/>
<path d="M120.419 137.688L123.926 128.205" stroke="#263238" stroke-linecap="round" stroke-linejoin="round"/>
<path d="M133.148 137.688L135.227 135.738" stroke="#263238" stroke-linecap="round" stroke-linejoin="round"/>
<path d="M113.979 136.388L115.093 133.402" stroke="#263238" stroke-linecap="round" stroke-linejoin="round"/>
<path d="M113.762 135.66L109.896 134.699" stroke="#263238" stroke-linecap="round" stroke-linejoin="round"/>
<path d="M122.887 131.064L121.848 129.375" stroke="#263238" stroke-linecap="round" stroke-linejoin="round"/>
<path d="M121.848 133.66L125.613 131.584" stroke="#263238" stroke-linecap="round" stroke-linejoin="round"/>
<path d="M120.724 136.957L124.184 135.738" stroke="#263238" stroke-linecap="round" stroke-linejoin="round"/>
<path d="M121.198 135.61L118.99 131.713" stroke="#263238" stroke-linecap="round" stroke-linejoin="round"/>
<path d="M124.259 128.205C124.259 128.272 124.239 128.337 124.202 128.392C124.165 128.447 124.112 128.49 124.051 128.516C123.989 128.541 123.921 128.548 123.856 128.534C123.791 128.521 123.731 128.489 123.684 128.442C123.637 128.394 123.606 128.334 123.593 128.269C123.58 128.203 123.587 128.136 123.613 128.074C123.639 128.013 123.683 127.961 123.739 127.924C123.794 127.888 123.859 127.869 123.926 127.869C123.97 127.869 124.014 127.878 124.054 127.895C124.095 127.912 124.132 127.937 124.163 127.968C124.193 127.999 124.218 128.036 124.234 128.077C124.251 128.118 124.259 128.161 124.259 128.205Z" fill="#263238"/>
<path d="M122.146 129.346C122.146 129.412 122.126 129.477 122.089 129.532C122.052 129.588 122 129.631 121.938 129.656C121.877 129.682 121.809 129.688 121.744 129.675C121.679 129.662 121.619 129.63 121.572 129.583C121.525 129.536 121.493 129.476 121.48 129.411C121.467 129.346 121.474 129.279 121.499 129.217C121.525 129.156 121.568 129.103 121.623 129.066C121.678 129.029 121.743 129.01 121.81 129.01C121.854 129.009 121.898 129.018 121.939 129.035C121.98 129.051 122.017 129.076 122.048 129.107C122.079 129.139 122.104 129.176 122.121 129.217C122.138 129.258 122.146 129.302 122.146 129.346Z" fill="#263238"/>
<path d="M125.612 131.92C125.798 131.92 125.948 131.77 125.948 131.584C125.948 131.398 125.798 131.248 125.612 131.248C125.427 131.248 125.276 131.398 125.276 131.584C125.276 131.77 125.427 131.92 125.612 131.92Z" fill="#263238"/>
<path d="M118.99 132.049C119.176 132.049 119.326 131.898 119.326 131.713C119.326 131.527 119.176 131.377 118.99 131.377C118.805 131.377 118.654 131.527 118.654 131.713C118.654 131.898 118.805 132.049 118.99 132.049Z" fill="#263238"/>
<path d="M124.359 136.025C124.545 136.025 124.695 135.875 124.695 135.689C124.695 135.504 124.545 135.354 124.359 135.354C124.174 135.354 124.023 135.504 124.023 135.689C124.023 135.875 124.174 136.025 124.359 136.025Z" fill="#263238"/>
<path d="M135.095 136.156C135.28 136.156 135.431 136.006 135.431 135.82C135.431 135.635 135.28 135.484 135.095 135.484C134.909 135.484 134.759 135.635 134.759 135.82C134.759 136.006 134.909 136.156 135.095 136.156Z" fill="#263238"/>
<path d="M113.09 132.62C113.091 132.687 113.071 132.752 113.035 132.807C112.998 132.863 112.946 132.907 112.885 132.933C112.823 132.958 112.756 132.966 112.69 132.953C112.625 132.94 112.565 132.909 112.517 132.862C112.47 132.815 112.438 132.755 112.425 132.69C112.411 132.625 112.418 132.557 112.443 132.495C112.469 132.434 112.512 132.381 112.567 132.344C112.622 132.307 112.687 132.287 112.754 132.287C112.842 132.287 112.927 132.322 112.99 132.384C113.053 132.447 113.089 132.531 113.09 132.62Z" fill="#263238"/>
<path d="M115.033 133.748C115.219 133.748 115.369 133.598 115.369 133.412C115.369 133.227 115.219 133.076 115.033 133.076C114.848 133.076 114.697 133.227 114.697 133.412C114.697 133.598 114.848 133.748 115.033 133.748Z" fill="#263238"/>
<path d="M109.897 135.035C110.082 135.035 110.233 134.885 110.233 134.699C110.233 134.514 110.082 134.363 109.897 134.363C109.711 134.363 109.561 134.514 109.561 134.699C109.561 134.885 109.711 135.035 109.897 135.035Z" fill="#263238"/>
<path d="M149.075 142.411C149.006 142.072 148.869 141.751 148.672 141.467C148.475 141.183 148.222 140.942 147.929 140.759C146.792 140.131 146.792 140.759 145.451 140.348C144.562 140.075 144.738 138.072 144.666 137.384C144.443 135.289 143.281 133.478 141.14 132.934C140.074 132.647 138.952 132.637 137.881 132.904C136.81 133.172 135.825 133.709 135.02 134.464C132.439 136.941 132.75 139.108 131.098 139.211C129.447 139.315 128.517 137.252 125.628 138.489C123.854 139.249 122.937 141.095 122.488 142.411H149.075Z" fill="#92E3A9"/>
<path d="M128.382 142.373L127.126 141.23" stroke="#263238" stroke-linecap="round" stroke-linejoin="round"/>
<path d="M136.037 142.431L139.409 135.576" stroke="#263238" stroke-linecap="round" stroke-linejoin="round"/>
<path d="M137.695 136.09L138.094 138.316L140.779 136.831" stroke="#263238" stroke-linecap="round" stroke-linejoin="round"/>
<path d="M135.525 138.377L136.894 140.889L139.579 140.032" stroke="#263238" stroke-linecap="round" stroke-linejoin="round"/>
</g>
</svg>
