<?xml version="1.0" encoding="UTF-8"?>
<svg width="860px" height="860px" viewBox="0 0 860 860" version="1.1" xmlns="http://www.w3.org/2000/svg" xmlns:xlink="http://www.w3.org/1999/xlink">
    <!-- Generator: Sketch 55.2 (78181) - https://sketchapp.com -->
    <title>Ground Logo (Modern)</title>
    <desc>Created with Sketch.</desc>
    <defs>
        <path d="M0,422.39 C0,655.239 188.761,844 421.61,844 L421.61,844 C654.458,844 843.219,655.239 843.219,422.39 L843.219,422.39 C843.219,189.542 654.458,0.781 421.61,0.781 L421.61,0.781 C188.761,0.781 0,189.542 0,422.39 L0,422.39 Z" id="path-1"></path>
    </defs>
    <g id="Page-1" stroke="none" stroke-width="1" fill="none" fill-rule="evenodd">
        <g id="Ground-Logo-(Modern)" transform="translate(8.000000, 7.000000)">
            <g id="Group-18" transform="translate(0.000000, 0.219000)">
                <mask id="mask-2" fill="white">
                    <use xlink:href="#path-1"></use>
                </mask>
                <g id="Clip-3"></g>
                <polygon id="Fill-2" fill="#E1E1E1" mask="url(#mask-2)" points="-303.157 1253.839 1136.843 1253.839 1136.843 -163.992 -303.157 -163.992"></polygon>
                <path d="M-302.656,1253.339 L1136.344,1253.339 L1136.344,-163.492 L-302.656,-163.492 L-302.656,1253.339 Z M-303.657,1254.339 L1137.343,1254.339 L1137.343,-164.492 L-303.657,-164.492 L-303.657,1254.339 Z" id="Fill-4" fill="#E1E1E1" mask="url(#mask-2)"></path>
                <path d="M947.8432,730.9394 C947.8432,803.6024 718.4592,862.5064 435.5002,862.5064 C152.5412,862.5064 -76.8438,803.6024 -76.8438,730.9394 C-76.8438,658.2774 152.5412,599.3724 435.5002,599.3724 C718.4592,599.3724 947.8432,658.2774 947.8432,730.9394" id="Fill-5" fill="#4B7ABD" mask="url(#mask-2)"></path>
                <path d="M580.8432,673.25 C580.8432,678.2 576.7932,682.25 571.8432,682.25 L312.8432,682.25 C307.8932,682.25 303.8432,678.2 303.8432,673.25 L303.8432,663.25 C303.8432,658.3 307.8932,654.25 312.8432,654.25 L419.6742,654.25 C424.6242,654.25 428.6742,650.2 428.6742,645.25 L428.6742,579.121 C428.6742,574.171 424.6242,570.121 419.6742,570.121 L264.1552,570.121 C259.2042,570.121 255.1772,566.071 255.205055,561.121 L255.6182,487.205 C255.6462,482.255 259.7192,478.228 264.6692,478.255 L274.6692,478.312 C279.6192,478.339 283.6462,482.411 283.6182,487.361 L283.3622,533.121 C283.3342,538.071 287.3622,542.121 292.3122,542.121 L419.6742,542.121 C424.6242,542.121 428.6742,538.071 428.6742,533.121 L428.6742,390.393 C428.6742,385.442 432.7232,381.393 437.6742,381.393 L447.6742,381.393 C452.6242,381.393 456.6742,385.442 456.6742,390.393 L456.6742,470.335 C456.6742,475.285 460.7232,479.335 465.6742,479.335 L519.6182,479.335 C524.5682,479.335 531.3502,476.346 534.6892,472.691 L564.5782,439.982 C567.9172,436.328 573.6392,436.071 577.2932,439.41 L584.6762,446.156 C588.3292,449.495 588.5872,455.217 585.2482,458.871 L547.0322,500.691 C543.6932,504.346 536.9112,507.335 531.9612,507.335 L465.6742,507.335 C460.7232,507.335 456.6742,511.385 456.6742,516.335 L456.6742,645.25 C456.6742,650.2 460.7232,654.25 465.6742,654.25 L571.8432,654.25 C576.7932,654.25 580.8432,658.3 580.8432,663.25 L580.8432,673.25 Z" id="Fill-6" fill="#231F20" opacity="0.300000012" mask="url(#mask-2)"></path>
                <path d="M568.8432,661.25 C568.8432,666.2 564.7932,670.25 559.8432,670.25 L300.8432,670.25 C295.8932,670.25 291.8432,666.2 291.8432,661.25 L291.8432,651.25 C291.8432,646.3 295.8932,642.25 300.8432,642.25 L407.6742,642.25 C412.6242,642.25 416.6742,638.2 416.6742,633.25 L416.6742,567.121 C416.6742,562.171 412.6242,558.121 407.6742,558.121 L252.1552,558.121 C247.2042,558.121 243.1772,554.071 243.205055,549.121 L243.6182,475.205 C243.6462,470.255 247.7182,466.228 252.6692,466.255 L262.6692,466.312 C267.6192,466.339 271.6462,470.411 271.6182,475.361 L271.3622,521.121 C271.3342,526.071 275.3622,530.121 280.3122,530.121 L407.6742,530.121 C412.6242,530.121 416.6742,526.071 416.6742,521.121 L416.6742,378.393 C416.6742,373.442 420.7232,369.393 425.6742,369.393 L435.6742,369.393 C440.6242,369.393 444.6742,373.442 444.6742,378.393 L444.6742,458.335 C444.6742,463.285 448.7232,467.335 453.6742,467.335 L507.6182,467.335 C512.5682,467.335 519.3502,464.346 522.6892,460.691 L552.5782,427.982 C555.9172,424.328 561.6392,424.071 565.2932,427.41 L572.6762,434.156 C576.3292,437.495 576.5872,443.217 573.2482,446.871 L535.0322,488.691 C531.6932,492.346 524.9112,495.335 519.9612,495.335 L453.6742,495.335 C448.7232,495.335 444.6742,499.385 444.6742,504.335 L444.6742,633.25 C444.6742,638.2 448.7232,642.25 453.6742,642.25 L559.8432,642.25 C564.7932,642.25 568.8432,646.3 568.8432,651.25 L568.8432,661.25 Z" id="Fill-7" fill="#FEFEFE" mask="url(#mask-2)"></path>
                <path d="M531.7758,731.8877 C531.7758,736.8377 527.7258,740.8877 522.7758,740.8877 L361.9108,740.8877 C356.9608,740.8877 352.9108,736.8377 352.9108,731.8877 L352.9108,721.8877 C352.9108,716.9377 356.9608,712.8877 361.9108,712.8877 L522.7758,712.8877 C527.7258,712.8877 531.7758,716.9377 531.7758,721.8877 L531.7758,731.8877 Z" id="Fill-8" fill="#231F20" opacity="0.300000012" mask="url(#mask-2)"></path>
                <path d="M519.7758,719.8877 C519.7758,724.8377 515.7258,728.8877 510.7758,728.8877 L349.9108,728.8877 C344.9608,728.8877 340.9108,724.8377 340.9108,719.8877 L340.9108,709.8877 C340.9108,704.9377 344.9608,700.8877 349.9108,700.8877 L510.7758,700.8877 C515.7258,700.8877 519.7758,704.9377 519.7758,709.8877 L519.7758,719.8877 Z" id="Fill-9" fill="#FEFEFE" mask="url(#mask-2)"></path>
                <path d="M488.2099,790.3261 C488.2099,795.2761 484.1599,799.3261 479.2099,799.3261 L405.9239,799.3261 C400.9739,799.3261 396.9239,795.2761 396.9239,790.3261 L396.9239,780.3261 C396.9239,775.3761 400.9739,771.3261 405.9239,771.3261 L479.2099,771.3261 C484.1599,771.3261 488.2099,775.3761 488.2099,780.3261 L488.2099,790.3261 Z" id="Fill-10" fill="#231F20" opacity="0.300000012" mask="url(#mask-2)"></path>
                <path d="M476.2099,778.3261 C476.2099,783.2761 472.1599,787.3261 467.2099,787.3261 L393.9239,787.3261 C388.9739,787.3261 384.9239,783.2761 384.9239,778.3261 L384.9239,768.3261 C384.9239,763.3761 388.9739,759.3261 393.9239,759.3261 L467.2099,759.3261 C472.1599,759.3261 476.2099,763.3761 476.2099,768.3261 L476.2099,778.3261 Z" id="Fill-11" fill="#FEFEFE" mask="url(#mask-2)"></path>
                <path d="M340.6225,412.4629 C340.6225,457.1869 303.4825,493.4419 257.6685,493.4419 C211.8545,493.4419 174.7155,457.1869 174.7155,412.4629 C174.7155,367.7379 211.8545,331.4829 257.6685,331.4829 C303.4825,331.4829 340.6225,367.7379 340.6225,412.4629" id="Fill-12" fill="#87BD47" mask="url(#mask-2)"></path>
                <path d="M340.6225,412.4629 C340.6225,457.1869 303.4825,493.4419 257.6685,493.4419 L257.6685,331.4829 C303.4825,331.4829 340.6225,367.7379 340.6225,412.4629" id="Fill-13" fill="#3EA65B" mask="url(#mask-2)"></path>
                <path d="M585.4155,233.7216 C585.4155,318.9796 516.3005,388.0946 431.0425,388.0946 C345.7845,388.0946 276.6685,318.9796 276.6685,233.7216 C276.6685,148.4636 345.7845,79.3476 431.0425,79.3476 C516.3005,79.3476 585.4155,148.4636 585.4155,233.7216" id="Fill-14" fill="#87BD47" mask="url(#mask-2)"></path>
                <path d="M585.4155,233.7216 C585.4155,318.9796 516.3005,388.0946 431.0425,388.0946 L431.0425,79.3476 C516.3005,79.3476 585.4155,148.4636 585.4155,233.7216" id="Fill-15" fill="#3EA65B" mask="url(#mask-2)"></path>
                <path d="M717.0624,359.8906 C717.0624,412.5746 671.4794,455.2836 615.2494,455.2836 C559.0194,455.2836 513.4364,412.5746 513.4364,359.8906 C513.4364,307.2056 559.0194,264.4966 615.2494,264.4966 C671.4794,264.4966 717.0624,307.2056 717.0624,359.8906" id="Fill-16" fill="#87BD47" mask="url(#mask-2)"></path>
                <path d="M717.0624,359.8906 C717.0624,412.5746 671.4794,455.2836 615.2494,455.2836 L615.2494,264.4966 C671.4794,264.4966 717.0624,307.2056 717.0624,359.8906" id="Fill-17" fill="#3EA65B" mask="url(#mask-2)"></path>
            </g>
            <path d="M843.2187,422.6096 C843.2187,655.4586 654.4577,844.2186 421.6097,844.2186 C188.7607,844.2186 -0.0003,655.4586 -0.0003,422.6096 C-0.0003,189.7606 188.7607,1.0006 421.6097,1.0006 C654.4577,1.0006 843.2187,189.7606 843.2187,422.6096 Z" id="Stroke-19" stroke="#FEFEFE" stroke-width="16"></path>
        </g>
    </g>
</svg>